<?xml version="1.0" encoding="UTF-8" standalone="no"?>
<!-- Created with Inkscape (http://www.inkscape.org/) -->

<svg
   xmlns:dc="http://purl.org/dc/elements/1.1/"
   xmlns:cc="http://creativecommons.org/ns#"
   xmlns:rdf="http://www.w3.org/1999/02/22-rdf-syntax-ns#"
   xmlns:svg="http://www.w3.org/2000/svg"
   xmlns="http://www.w3.org/2000/svg"
   xmlns:sodipodi="http://sodipodi.sourceforge.net/DTD/sodipodi-0.dtd"
   xmlns:inkscape="http://www.inkscape.org/namespaces/inkscape"
   width="50"
   height="50"
   viewBox="0 0 13.229167 13.229167"
   version="1.1"
   id="svg8"
   sodipodi:docname="logoS.svg"
   inkscape:version="0.92.3 (2405546, 2018-03-11)">
  <defs
     id="defs2" />
  <sodipodi:namedview
     id="base"
     pagecolor="#ffffff"
     bordercolor="#666666"
     borderopacity="1.0"
     inkscape:pageopacity="0.0"
     inkscape:pageshadow="2"
     inkscape:zoom="8.0000001"
     inkscape:cx="17.550893"
     inkscape:cy="20.567097"
     inkscape:document-units="mm"
     inkscape:current-layer="layer1"
     showgrid="false"
     units="px"
     inkscape:window-width="1366"
     inkscape:window-height="719"
     inkscape:window-x="0"
     inkscape:window-y="20"
     inkscape:window-maximized="1" />
  <metadata
     id="metadata5">
    <rdf:RDF>
      <cc:Work
         rdf:about="">
        <dc:format>image/svg+xml</dc:format>
        <dc:type
           rdf:resource="http://purl.org/dc/dcmitype/StillImage" />
        <dc:title></dc:title>
      </cc:Work>
    </rdf:RDF>
  </metadata>
  <g
     inkscape:label="Layer 1"
     inkscape:groupmode="layer"
     id="layer1"
     transform="translate(0,-283.77082)">
    <g
       id="g888"
       transform="translate(5.1627276)" />
    <path
       sodipodi:type="star"
       style="opacity:1;vector-effect:none;fill:#005b87;fill-opacity:1;stroke:#001c29;stroke-width:0.46464913;stroke-linecap:round;stroke-linejoin:bevel;stroke-miterlimit:0;stroke-dasharray:none;stroke-dashoffset:0;stroke-opacity:1;paint-order:markers fill stroke"
       id="path817"
       sodipodi:sides="6"
       sodipodi:cx="11.43378"
       sodipodi:cy="284.05429"
       sodipodi:r1="10.754485"
       sodipodi:r2="9.226058"
       sodipodi:arg1="0.52359878"
       sodipodi:arg2="1.0471976"
       inkscape:flatsided="false"
       inkscape:rounded="0"
       inkscape:randomized="0"
       d="m 20.747437,289.43153 -4.700629,2.61276 -4.613028,2.76449 -4.6130297,-2.76449 -4.7006279,-2.61276 0.087599,-5.37724 -0.087599,-5.37724 4.7006287,-2.61276 4.6130289,-2.76448 4.613029,2.76448 4.700628,2.61276 -0.0876,5.37724 z"
       transform="matrix(0.56867416,0,0,0.57017899,0.11248832,128.42362)" />
    <ellipse
       style="opacity:1;vector-effect:none;fill:#a2e2ff;fill-opacity:1;stroke:#6ad1ff;stroke-width:0.26468608;stroke-linecap:round;stroke-linejoin:round;stroke-miterlimit:0;stroke-dasharray:none;stroke-dashoffset:0;stroke-opacity:1;paint-order:markers fill stroke"
       id="path891"
       cx="-119.195"
       cy="258.94241"
       rx="0.26132408"
       ry="0.48244059"
       transform="matrix(0.8828991,-0.46956275,0.4344175,0.90071163,0,0)" />
    <path
       inkscape:connector-curvature="0"
       style="opacity:1;vector-effect:none;fill:#4d4d4d;fill-opacity:1;stroke:#555555;stroke-width:0.26458332;stroke-linecap:round;stroke-linejoin:round;stroke-miterlimit:0;stroke-dasharray:none;stroke-dashoffset:0;stroke-opacity:1;paint-order:markers fill stroke"
       d="m 2.5259041,291.26534 -0.2225257,0.11646 c -9.022e-4,0.0829 0.00736,0.15618 0.023356,0.22156 0.015994,0.0654 0.039772,0.12297 0.069797,0.17452 0.030025,0.0516 0.066332,0.0971 0.1075234,0.13847 0.041192,0.0415 0.087213,0.0787 0.1367081,0.11373 l 0.2012646,-0.10477 c -0.067354,-0.0351 -0.1308618,-0.0731 -0.1843608,-0.11667 -0.053499,-0.0436 -0.09704,-0.0926 -0.1246426,-0.1497 -0.027623,-0.0571 -0.037996,-0.12028 -0.037199,-0.18679 7.97e-4,-0.0665 0.012765,-0.1364 0.030081,-0.20681 z"
       id="path1010" />
    <path
       inkscape:connector-curvature="0"
       style="opacity:1;vector-effect:none;fill:#6c3963;fill-opacity:1;stroke:none;stroke-width:0.26458332;stroke-linecap:round;stroke-linejoin:round;stroke-miterlimit:0;stroke-dasharray:none;stroke-dashoffset:0;stroke-opacity:1;paint-order:markers fill stroke"
       d="m 4.0061273,290.80997 c -0.011722,-0.03 -0.029622,-0.0571 -0.035851,-0.0897 -0.012427,-0.065 -0.015418,-0.13415 -0.015407,-0.20326 l -1.3573236,0.71079 c -0.025946,0.0756 -0.038021,0.14669 -0.037037,0.21305 6.365e-4,0.0427 0.015727,0.08 0.027259,0.11857 z"
       id="path991" />
    <path
       inkscape:connector-curvature="0"
       style="opacity:1;vector-effect:none;fill:#8b497f;fill-opacity:1;stroke:none;stroke-width:0.26458332;stroke-linecap:round;stroke-linejoin:round;stroke-miterlimit:0;stroke-dasharray:none;stroke-dashoffset:0;stroke-opacity:1;paint-order:markers fill stroke"
       d="m 4.0061273,290.80997 -1.4183602,0.74942 c 0.00639,0.0214 0.00542,0.0456 0.015111,0.0657 0.026328,0.0544 0.066415,0.1037 0.1185177,0.14768 0.052102,0.044 0.115995,0.0824 0.1905171,0.11559 l 1.3916938,-0.72534 c -0.080893,-0.0786 -0.1869519,-0.15784 -0.2616276,-0.26387 -0.018615,-0.0264 -0.024196,-0.0593 -0.035851,-0.0891 z"
       id="path1008" />
    <path
       inkscape:connector-curvature="0"
       style="opacity:1;vector-effect:none;fill:#4d4d4d;fill-opacity:1;stroke:#555555;stroke-width:0.26458332;stroke-linecap:round;stroke-linejoin:round;stroke-miterlimit:0;stroke-dasharray:none;stroke-dashoffset:0;stroke-opacity:1;paint-order:markers fill stroke"
       d="m 4.4186757,290.16543 -0.3734904,0.19653 c -0.019582,0.11079 -0.025911,0.20664 -0.016305,0.28976 0.00961,0.0831 0.03509,0.15349 0.079245,0.21324 0.044156,0.0598 0.099301,0.1161 0.1612926,0.16858 0.061991,0.0525 0.1307944,0.10113 0.2025,0.14578 l 0.3462187,-0.18246 c -0.089095,-0.0426 -0.1711864,-0.0901 -0.2397994,-0.1451 -0.068613,-0.055 -0.1238004,-0.11738 -0.1586564,-0.18968 -0.034488,-0.0715 -0.047168,-0.1508 -0.045046,-0.23465 0.00212,-0.0839 0.019035,-0.17233 0.044042,-0.262 z"
       id="path1006" />
    <path
       inkscape:connector-curvature="0"
       style="opacity:1;vector-effect:none;fill:#6c3963;fill-opacity:1;stroke:none;stroke-width:0.26458332;stroke-linecap:round;stroke-linejoin:round;stroke-miterlimit:0;stroke-dasharray:none;stroke-dashoffset:0;stroke-opacity:1;paint-order:markers fill stroke"
       d="m 6.6683306,289.42258 c -0.019676,-0.0583 -0.036635,-0.11765 -0.034964,-0.18305 0.0021,-0.0838 0.018946,-0.17194 0.043853,-0.26149 l -2.1860586,1.14968 c -0.034255,0.0953 -0.051557,0.18525 -0.051851,0.26892 -2.275e-4,0.0647 0.01867,0.12207 0.038815,0.17888 z"
       id="path999" />
    <path
       inkscape:connector-curvature="0"
       style="opacity:1;vector-effect:none;fill:#8b497f;fill-opacity:1;stroke:none;stroke-width:0.26458332;stroke-linecap:round;stroke-linejoin:round;stroke-miterlimit:0;stroke-dasharray:none;stroke-dashoffset:0;stroke-opacity:1;paint-order:markers fill stroke"
       d="m 6.6683306,289.42258 -2.1902066,1.15294 c 0.00592,0.0167 0.00356,0.0366 0.011259,0.0526 0.033486,0.0695 0.0849,0.13204 0.1519989,0.1875 0.067098,0.0555 0.1499975,0.10363 0.2474056,0.14412 l 2.1884289,-1.15087 c -0.089202,-0.0426 -0.1715723,-0.0904 -0.2402945,-0.1453 -0.068721,-0.0549 -0.12393,-0.11723 -0.1588139,-0.18959 -0.00755,-0.0156 -0.00426,-0.035 -0.00978,-0.0514 z"
       id="path1004" />
    <path
       inkscape:connector-curvature="0"
       style="opacity:1;vector-effect:none;fill:#4d4d4d;fill-opacity:1;stroke:#555555;stroke-width:0.26458332;stroke-linecap:round;stroke-linejoin:round;stroke-miterlimit:0;stroke-dasharray:none;stroke-dashoffset:0;stroke-opacity:1;paint-order:markers fill stroke"
       d="m 7.0623111,288.77522 -0.3127727,0.16447 c -0.034261,0.0953 -0.051452,0.18544 -0.051734,0.26926 -2.801e-4,0.0838 0.016344,0.16128 0.05024,0.23158 0.033458,0.0694 0.084631,0.13193 0.1517537,0.18727 0.067122,0.0553 0.150308,0.10345 0.2475906,0.14392 l 0.3423581,-0.1798 c -0.071883,-0.047 -0.1360979,-0.10223 -0.191511,-0.16354 -0.05541,-0.0613 -0.10197,-0.12863 -0.1389145,-0.19971 -0.03694,-0.0711 -0.064195,-0.14594 -0.080671,-0.22225 -0.016477,-0.0763 -0.022322,-0.15415 -0.016333,-0.2312 z"
       id="path1002" />
    <path
       inkscape:connector-curvature="0"
       style="opacity:1;vector-effect:none;fill:#33c1ff;fill-opacity:0;stroke:#555555;stroke-width:0.26458332;stroke-linecap:round;stroke-linejoin:round;stroke-miterlimit:0;stroke-dasharray:none;stroke-dashoffset:0;stroke-opacity:1;paint-order:markers fill stroke"
       d="m 7.1772127,288.70607 c -0.020717,-0.001 -0.033978,0.009 -0.048131,0.0268 -0.011618,0.075 -0.00932,0.1531 0.00531,0.23082 0.014678,0.0777 0.041849,0.15505 0.07988,0.22857 0.03803,0.0735 0.086928,0.14317 0.1453671,0.20553 0.058439,0.0624 0.1263753,0.11741 0.2022713,0.16163 0.026008,-5.3e-4 0.040908,-0.005 0.052205,-0.0255 0.012824,-0.0234 0.019909,-0.0666 0.016062,-0.12055 -0.00387,-0.054 -0.017894,-0.11807 -0.039596,-0.18475 -0.021702,-0.0667 -0.051219,-0.13593 -0.086266,-0.20028 -0.066136,-0.12144 -0.1534462,-0.22642 -0.2298088,-0.28063 -0.038179,-0.0271 -0.073079,-0.0408 -0.097343,-0.0416 z"
       id="path1000" />
    <path
       inkscape:connector-curvature="0"
       style="opacity:1;vector-effect:none;fill:#000000;fill-opacity:1;stroke:#000000;stroke-width:0.26458332;stroke-linecap:round;stroke-linejoin:round;stroke-miterlimit:0;stroke-dasharray:none;stroke-dashoffset:0;stroke-opacity:1;paint-order:markers fill stroke"
       d="m 7.1408239,288.64667 -0.069599,0.0363 -3.1004608,1.63059 -0.00351,0.0181 c 0.00371,0.0308 -0.00297,0.0621 -0.00368,0.0931 l -1.7417331,0.91218 c -0.00163,0.0845 0.00584,0.16714 0.022194,0.24557 0.016359,0.0784 0.041589,0.15266 0.075839,0.22087 0.034248,0.0682 0.077414,0.13027 0.1294473,0.18413 0.052033,0.0539 0.1129721,0.0996 0.1826821,0.13495 l 1.7546725,-0.91518 c 0.02929,0.0288 0.053537,0.0395 0.082549,0.061 l 3.1645449,-1.66404 c 0.026202,-0.0197 0.044478,-0.0505 0.056316,-0.0854 0.011839,-0.035 0.01728,-0.0741 0.017706,-0.1108 -0.00448,-0.0625 -0.019582,-0.13234 -0.042845,-0.20379 -0.023268,-0.0715 -0.054739,-0.14446 -0.092144,-0.21314 -0.035379,-0.065 -0.075893,-0.12549 -0.1189969,-0.17778 -0.043105,-0.0523 -0.088748,-0.0964 -0.1344402,-0.12886 -0.029008,-0.0214 -0.06155,-0.0315 -0.092865,-0.0358 -0.031316,-0.004 -0.061437,-0.003 -0.085679,-0.002 z m 0.036386,0.0594 c 0.024276,10e-4 0.05916,0.0145 0.097343,0.0416 0.076362,0.0542 0.1636713,0.15919 0.2298088,0.28063 0.035047,0.0643 0.06456,0.13359 0.086265,0.20027 0.021708,0.0667 0.035727,0.13082 0.039596,0.18475 0.00382,0.054 -0.00321,0.0972 -0.016062,0.12056 -0.01128,0.0205 -0.026163,0.0253 -0.052205,0.0255 -0.075895,-0.0442 -0.1438322,-0.0993 -0.2022718,-0.16163 -0.058439,-0.0623 -0.1073316,-0.13199 -0.145366,-0.20552 -0.03803,-0.0735 -0.065198,-0.15084 -0.079881,-0.22857 -0.014678,-0.0777 -0.017014,-0.15586 -0.00531,-0.23082 0.014164,-0.0175 0.027436,-0.0275 0.048131,-0.0268 z m -0.1149016,0.0691 c -0.00598,0.077 -1.45e-4,0.15487 0.016333,0.2312 0.016477,0.0763 0.043731,0.15117 0.080672,0.22225 0.03694,0.0711 0.083502,0.1384 0.138914,0.19971 0.055416,0.0613 0.1196273,0.11651 0.191511,0.16354 l -0.3423581,0.1798 c -0.097283,-0.0405 -0.1804679,-0.0886 -0.2475911,-0.14392 -0.067123,-0.0553 -0.1182961,-0.11787 -0.1517531,-0.18727 -0.03389,-0.0703 -0.050517,-0.14778 -0.05024,-0.23158 2.801e-4,-0.0838 0.017474,-0.17393 0.051734,-0.26926 z m -0.3850727,0.20277 c -0.024912,0.0896 -0.041788,0.17776 -0.04393,0.26152 -0.0021,0.0838 0.010439,0.16306 0.044882,0.23452 0.034881,0.0723 0.090084,0.13473 0.1588062,0.18967 0.068722,0.0549 0.1510491,0.10246 0.2402508,0.14505 l -2.1883707,1.15103 c -0.097408,-0.0405 -0.1805057,-0.0886 -0.2476035,-0.14408 -0.067098,-0.0555 -0.1182979,-0.11812 -0.1517822,-0.18758 -0.033892,-0.0703 -0.050515,-0.14776 -0.050223,-0.23143 2.938e-4,-0.0837 0.01751,-0.17362 0.051763,-0.26895 z m -2.2585612,1.18744 c -0.025005,0.0897 -0.041922,0.17815 -0.044042,0.262 -0.00212,0.0838 0.01056,0.16311 0.045046,0.23465 0.034856,0.0723 0.090043,0.13472 0.1586563,0.18968 0.068613,0.055 0.1507041,0.10252 0.2397993,0.1451 l -0.3462186,0.18246 c -0.071706,-0.0447 -0.1405087,-0.0933 -0.2024999,-0.14578 -0.061992,-0.0525 -0.1171368,-0.10882 -0.1612926,-0.16858 -0.044155,-0.0598 -0.069639,-0.13013 -0.079245,-0.21324 -0.00961,-0.0831 -0.00328,-0.17897 0.016305,-0.28976 z m -0.4638658,0.35159 c -1.2e-6,0.0691 0.00304,0.13823 0.015454,0.20326 0.012419,0.065 0.034228,0.12591 0.071565,0.17893 0.074676,0.10603 0.1808012,0.18523 0.2616948,0.26385 l -1.391503,0.72539 c -0.074523,-0.0332 -0.1385562,-0.0718 -0.1906586,-0.11579 -0.052103,-0.044 -0.092208,-0.0932 -0.1185352,-0.14768 -0.027167,-0.0562 -0.041432,-0.11766 -0.042415,-0.18403 -9.852e-4,-0.0664 0.011295,-0.13767 0.03724,-0.21325 z m -1.4289057,0.74832 c -0.017317,0.0704 -0.029285,0.14029 -0.030081,0.20681 -7.971e-4,0.0665 0.00958,0.12968 0.037199,0.18679 0.027602,0.057 0.071143,0.10614 0.1246427,0.1497 0.053499,0.0435 0.1170058,0.0816 0.1843608,0.11667 l -0.2012647,0.10477 c -0.049494,-0.035 -0.095516,-0.0723 -0.1367081,-0.11373 -0.041192,-0.0414 -0.077498,-0.0869 -0.1075233,-0.13847 -0.030025,-0.0516 -0.053802,-0.10914 -0.069797,-0.17452 -0.015995,-0.0654 -0.024253,-0.13865 -0.023356,-0.22156 z"
       id="path998" />
    <path
       style="fill:#001c29;fill-opacity:1;stroke:#000000;stroke-width:0.26458332px;stroke-linecap:butt;stroke-linejoin:miter;stroke-opacity:1"
       d="m 4.8016293,290.5951 a 0.49780853,0.49914608 0 0 0 -0.4977445,0.49908 0.49780853,0.49914608 0 0 0 0.086664,0.28071 c -0.1703079,0.25321 -0.3665987,0.59933 -0.5772982,0.96525 -0.415332,0.72131 -0.8727235,1.43631 -0.6886136,1.54289 0.1841101,0.10658 0.5728958,-0.64825 0.9882276,-1.36956 0.1861716,-0.32332 0.3808455,-0.64536 0.5201273,-0.90869 -0.012227,0.30379 -0.00438,0.67712 -0.00438,1.04731 0,0.83289 -0.039569,1.6815 0.1730236,1.68149 0.2125919,0 0.1730228,-0.8486 0.1730228,-1.68149 0,-0.37619 0.00802,-0.75556 -0.00892,-1.06247 0.1359558,0.26569 0.3346247,0.59408 0.5245139,0.92385 0.4153318,0.72131 0.8042687,1.47614 0.988379,1.36956 0.1841104,-0.10658 -0.2732816,-0.82158 -0.688614,-1.54289 -0.2105956,-0.36574 -0.4067465,-0.71178 -0.5769952,-0.96495 a 0.49780853,0.49914608 0 0 0 0.08636,-0.28101 0.49780853,0.49914608 0 0 0 -0.4977434,-0.49908 z"
       id="path819-3-5-3"
       inkscape:connector-curvature="0" />
    <ellipse
       style="opacity:1;vector-effect:none;fill:#8b497f;fill-opacity:1;stroke:#000000;stroke-width:0.33995327;stroke-linecap:round;stroke-linejoin:round;stroke-miterlimit:4;stroke-dasharray:none;stroke-dashoffset:0;stroke-opacity:1;paint-order:markers fill stroke"
       id="path1012"
       cx="4.8016281"
       cy="291.01099"
       rx="0.22527844"
       ry="0.22588375" />
    <path
       sodipodi:type="star"
       style="opacity:1;vector-effect:none;fill:#fbb13c;fill-opacity:1;stroke:none;stroke-width:0.47734293;stroke-linecap:round;stroke-linejoin:round;stroke-miterlimit:0;stroke-dasharray:none;stroke-dashoffset:0;stroke-opacity:1;paint-order:markers fill stroke"
       id="path960"
       sodipodi:sides="4"
       sodipodi:cx="17.954254"
       sodipodi:cy="278.6792"
       sodipodi:r1="1.184709"
       sodipodi:r2="0.59235436"
       sodipodi:arg1="1.5707963"
       sodipodi:arg2="2.3561945"
       inkscape:flatsided="false"
       inkscape:rounded="0"
       inkscape:randomized="0"
       d="m 17.954254,279.86391 -0.418858,-0.76585 -0.765851,-0.41886 0.765851,-0.41886 0.418858,-0.76585 0.418858,0.76585 0.765851,0.41886 -0.765851,0.41886 z"
       transform="matrix(0.55348401,0,0,0.5550842,0.59466886,132.86871)" />
    <path
       sodipodi:type="star"
       style="opacity:1;vector-effect:none;fill:#fbb13c;fill-opacity:1;stroke:none;stroke-width:0.47734293;stroke-linecap:round;stroke-linejoin:round;stroke-miterlimit:0;stroke-dasharray:none;stroke-dashoffset:0;stroke-opacity:1;paint-order:markers fill stroke"
       id="path962"
       sodipodi:sides="4"
       sodipodi:cx="17.028988"
       sodipodi:cy="281.39731"
       sodipodi:r1="0.40704495"
       sodipodi:r2="0.20352247"
       sodipodi:arg1="1.5707963"
       sodipodi:arg2="2.3561945"
       inkscape:flatsided="false"
       inkscape:rounded="0"
       inkscape:randomized="0"
       d="m 17.028988,281.80435 -0.143912,-0.26313 -0.263133,-0.14391 0.263133,-0.14391 0.143912,-0.26314 0.143912,0.26314 0.263133,0.14391 -0.263133,0.14391 z"
       transform="matrix(0.55348401,0,0,0.5550842,0.59466886,132.86871)" />
    <path
       sodipodi:type="star"
       style="opacity:1;vector-effect:none;fill:#fbb13c;fill-opacity:1;stroke:none;stroke-width:0.47734293;stroke-linecap:round;stroke-linejoin:round;stroke-miterlimit:0;stroke-dasharray:none;stroke-dashoffset:0;stroke-opacity:1;paint-order:markers fill stroke"
       id="path964"
       sodipodi:sides="4"
       sodipodi:cx="14.919917"
       sodipodi:cy="278.82718"
       sodipodi:r1="0.88886857"
       sodipodi:r2="0.44443429"
       sodipodi:arg1="1.5707963"
       sodipodi:arg2="2.3561945"
       inkscape:flatsided="false"
       inkscape:rounded="0"
       inkscape:randomized="0"
       d="m 14.919917,279.71605 -0.314262,-0.57461 -0.574606,-0.31426 0.574606,-0.31426 0.314262,-0.57461 0.314263,0.57461 0.574606,0.31426 -0.574606,0.31426 z"
       transform="matrix(0.55348401,0,0,0.5550842,0.59466886,132.86871)" />
    <flowRoot
       xml:space="preserve"
       id="flowRoot1019"
       style="font-style:normal;font-weight:normal;font-size:40px;line-height:1.25;font-family:sans-serif;letter-spacing:0px;word-spacing:0px;fill:#000000;fill-opacity:1;stroke:none"><flowRegion
         id="flowRegion1021"><rect
           id="rect1023"
           width="161.12103"
           height="40.571529"
           x="77.274971"
           y="29.123894" /></flowRegion><flowPara
         id="flowPara1025" /></flowRoot>  </g>
</svg>
