<?xml version="1.0" encoding="UTF-8" standalone="no"?>
<svg
   xmlns:osb="http://www.openswatchbook.org/uri/2009/osb"
   xmlns:dc="http://purl.org/dc/elements/1.1/"
   xmlns:cc="http://creativecommons.org/ns#"
   xmlns:rdf="http://www.w3.org/1999/02/22-rdf-syntax-ns#"
   xmlns:svg="http://www.w3.org/2000/svg"
   xmlns="http://www.w3.org/2000/svg"
   id="svg8"
   version="1.1"
   viewBox="0 0 12.7 12.7"
   height="48"
   width="48">
  <defs
     id="defs2">
    <linearGradient
       osb:paint="solid"
       id="linearGradient2413">
      <stop
         id="stop2411"
         offset="0"
         style="stop-color:#000000;stop-opacity:1;" />
    </linearGradient>
  </defs>
  <metadata
     id="metadata5">
    <rdf:RDF>
      <cc:Work
         rdf:about="">
        <dc:format>image/svg+xml</dc:format>
        <dc:type
           rdf:resource="http://purl.org/dc/dcmitype/StillImage" />
        <dc:title></dc:title>
      </cc:Work>
    </rdf:RDF>
  </metadata>
  <g
     style="display:inline"
     transform="translate(0,-284.29998)"
     id="layer1">
    <circle
       cy="290.64999"
       cx="6.3499999"
       id="path815"
       style="fill:none;fill-opacity:1;stroke:#b1740f;stroke-width:0.51699585;stroke-miterlimit:4;stroke-dasharray:none;stroke-opacity:1"
       r="6.0914688" />
    <g
       transform="matrix(1.2899007,0,0,1.2899007,-22.115295,-88.576833)"
       id="g2974">
      <path
         style="display:inline;fill:none;stroke:#b1740f;stroke-width:0.24618466px;stroke-linecap:butt;stroke-linejoin:bevel;stroke-opacity:1"
         d="m 24.46484,293.59437 c -0.503162,-0.90154 -2.520796,-0.52154 -3.024955,0 v 2.8571 c 0.416479,-0.56688 2.527561,-0.61628 2.871515,0 z"
         id="path2707-8" />
      <path
         style="fill:none;stroke:#b1740f;stroke-width:0.24618466px;stroke-linecap:butt;stroke-linejoin:bevel;stroke-opacity:1"
         d="m 18.373856,293.59437 c 0.503162,-0.90154 2.520796,-0.52154 3.024955,0 v 2.8571 c -0.416479,-0.56688 -2.527561,-0.61628 -2.871515,0 z"
         id="path2707" />
      <path
         style="fill:none;stroke:#b1740f;stroke-width:0.13229167;stroke-linecap:butt;stroke-linejoin:miter;stroke-miterlimit:4;stroke-dasharray:none;stroke-opacity:1"
         d="m 18.670354,293.92475 c 0.513749,-0.41876 1.88209,-0.42197 2.443991,0"
         id="path2739" />
      <path
         style="display:inline;fill:none;stroke:#b1740f;stroke-width:0.13229167;stroke-linecap:butt;stroke-linejoin:miter;stroke-miterlimit:4;stroke-dasharray:none;stroke-opacity:1"
         d="m 18.713243,294.50238 c 0.513749,-0.41876 1.88209,-0.42197 2.443991,0"
         id="path2739-9" />
      <path
         style="display:inline;fill:none;stroke:#b1740f;stroke-width:0.13229167;stroke-linecap:butt;stroke-linejoin:miter;stroke-miterlimit:4;stroke-dasharray:none;stroke-opacity:1"
         d="m 18.738657,295.11232 c 0.513749,-0.41876 1.88209,-0.42197 2.443991,0"
         id="path2739-9-2" />
      <path
         style="display:inline;fill:none;stroke:#b1740f;stroke-width:0.13229167;stroke-linecap:butt;stroke-linejoin:miter;stroke-miterlimit:4;stroke-dasharray:none;stroke-opacity:1"
         d="m 18.730186,295.71379 c 0.513749,-0.41876 1.88209,-0.42197 2.443991,0"
         id="path2739-9-2-0" />
      <path
         style="display:inline;fill:none;stroke:#b1740f;stroke-width:0.13229167;stroke-linecap:butt;stroke-linejoin:miter;stroke-miterlimit:4;stroke-dasharray:none;stroke-opacity:1"
         d="m 24.173137,293.92475 c -0.513749,-0.41876 -1.88209,-0.42197 -2.443991,0"
         id="path2739-2" />
      <path
         style="display:inline;fill:none;stroke:#b1740f;stroke-width:0.13229167;stroke-linecap:butt;stroke-linejoin:miter;stroke-miterlimit:4;stroke-dasharray:none;stroke-opacity:1"
         d="m 24.130248,294.50238 c -0.513749,-0.41876 -1.88209,-0.42197 -2.443991,0"
         id="path2739-9-3" />
      <path
         style="display:inline;fill:none;stroke:#b1740f;stroke-width:0.13229167;stroke-linecap:butt;stroke-linejoin:miter;stroke-miterlimit:4;stroke-dasharray:none;stroke-opacity:1"
         d="m 22.893426,294.84971 c -0.429035,-0.0545 -0.848581,0.0185 -1.232583,0.26261"
         id="path2739-9-2-7" />
      <path
         style="display:inline;fill:none;stroke:#ffffff;stroke-width:0.28577393px;stroke-linecap:butt;stroke-linejoin:miter;stroke-opacity:1"
         d="m 23.158105,294.90706 c 0.0366,-0.78689 1.097983,-2.83646 1.97637,-3.29395"
         id="path2807-5" />
      <path
         style="display:inline;fill:#ffffff;fill-opacity:1;stroke:#ffffff;stroke-width:0.08781803;stroke-linecap:butt;stroke-linejoin:miter;stroke-miterlimit:4;stroke-dasharray:none;stroke-opacity:1"
         d="m 23.291632,294.19101 c -0.252256,-0.31757 0.254528,-2.29729 2.413771,-3.02714 -1.517403,2.11596 -1.879385,2.50812 -2.413771,3.02714 z"
         id="path2824-9" />
      <path
         style="fill:none;stroke:#b1740f;stroke-width:0.05291667;stroke-linecap:butt;stroke-linejoin:miter;stroke-miterlimit:4;stroke-dasharray:none;stroke-opacity:1"
         d="m 23.124219,294.89012 c 0.03389,-0.72854 1.041381,-2.61995 1.808041,-3.10706"
         id="path2807" />
      <path
         style="fill:none;stroke:#b1740f;stroke-width:0.079375;stroke-linecap:butt;stroke-linejoin:miter;stroke-miterlimit:4;stroke-dasharray:none;stroke-opacity:1"
         d="m 23.387706,294.00483 c -0.227451,-0.28766 0.230938,-2.07973 2.179758,-2.73932 -1.370408,1.91487 -1.697264,2.26971 -2.179758,2.73932 z"
         id="path2824" />
      <path
         style="fill:none;stroke:#b1740f;stroke-width:0.02645833;stroke-linecap:butt;stroke-linejoin:miter;stroke-miterlimit:4;stroke-dasharray:none;stroke-opacity:1"
         d="m 23.541977,293.65378 c -0.07624,-0.0847 -0.0085,-0.41509 -0.0085,-0.41509"
         id="path2841" />
      <path
         style="display:inline;fill:none;stroke:#b1740f;stroke-width:0.02645833;stroke-linecap:butt;stroke-linejoin:miter;stroke-miterlimit:4;stroke-dasharray:none;stroke-opacity:1"
         d="m 23.731227,293.29065 c -0.07624,-0.0847 -0.0085,-0.41509 -0.0085,-0.41509"
         id="path2841-2" />
      <path
         style="display:inline;fill:none;stroke:#b1740f;stroke-width:0.02645833;stroke-linecap:butt;stroke-linejoin:miter;stroke-miterlimit:4;stroke-dasharray:none;stroke-opacity:1"
         d="m 23.929872,292.92647 c -0.05907,-0.0974 0.06921,-0.40936 0.06921,-0.40936"
         id="path2841-2-2" />
      <path
         style="display:inline;fill:none;stroke:#b1740f;stroke-width:0.02645833;stroke-linecap:butt;stroke-linejoin:miter;stroke-miterlimit:4;stroke-dasharray:none;stroke-opacity:1"
         d="m 24.206492,292.5439 c -0.05353,-0.10061 0.092,-0.40486 0.092,-0.40486"
         id="path2841-2-8" />
      <path
         style="display:inline;fill:none;stroke:#b1740f;stroke-width:0.02645833;stroke-linecap:butt;stroke-linejoin:miter;stroke-miterlimit:4;stroke-dasharray:none;stroke-opacity:1"
         d="m 24.47528,292.22125 c -0.02447,-0.1113 0.197589,-0.36515 0.197589,-0.36515"
         id="path2841-2-9" />
      <path
         style="display:inline;fill:none;stroke:#b1740f;stroke-width:0.02645833;stroke-linecap:butt;stroke-linejoin:miter;stroke-miterlimit:4;stroke-dasharray:none;stroke-opacity:1"
         d="m 23.57414,293.54948 c 0.113851,-0.005 0.302245,-0.28463 0.302245,-0.28463"
         id="path2841-7" />
      <path
         style="display:inline;fill:none;stroke:#b1740f;stroke-width:0.02645833;stroke-linecap:butt;stroke-linejoin:miter;stroke-miterlimit:4;stroke-dasharray:none;stroke-opacity:1"
         d="m 23.823505,293.10081 c 0.111903,0.0216 0.360043,-0.20672 0.360043,-0.20672"
         id="path2841-7-3" />
      <path
         style="display:inline;fill:none;stroke:#b1740f;stroke-width:0.02645833;stroke-linecap:butt;stroke-linejoin:miter;stroke-miterlimit:4;stroke-dasharray:none;stroke-opacity:1"
         d="m 24.040383,292.74655 c 0.111903,0.0216 0.360043,-0.20672 0.360043,-0.20672"
         id="path2841-7-3-6" />
      <path
         style="display:inline;fill:none;stroke:#b1740f;stroke-width:0.02645833;stroke-linecap:butt;stroke-linejoin:miter;stroke-miterlimit:4;stroke-dasharray:none;stroke-opacity:1"
         d="m 24.321496,292.41472 c 0.112305,0.0194 0.3559,-0.21377 0.3559,-0.21377"
         id="path2841-7-3-6-1" />
      <path
         style="display:inline;fill:none;stroke:#b1740f;stroke-width:0.02645833;stroke-linecap:butt;stroke-linejoin:miter;stroke-miterlimit:4;stroke-dasharray:none;stroke-opacity:1"
         d="m 24.55617,292.11701 c 0.111903,0.0216 0.360043,-0.20672 0.360043,-0.20672"
         id="path2841-7-3-6-2" />
    </g>
  </g>
</svg>
