<?xml version="1.0" encoding="UTF-8" standalone="no"?>
<!-- Created with Inkscape (http://www.inkscape.org/) -->

<svg
   xmlns:dc="http://purl.org/dc/elements/1.1/"
   xmlns:cc="http://creativecommons.org/ns#"
   xmlns:rdf="http://www.w3.org/1999/02/22-rdf-syntax-ns#"
   xmlns:svg="http://www.w3.org/2000/svg"
   xmlns="http://www.w3.org/2000/svg"
   xmlns:sodipodi="http://sodipodi.sourceforge.net/DTD/sodipodi-0.dtd"
   xmlns:inkscape="http://www.inkscape.org/namespaces/inkscape"
   width="270"
   height="100"
   viewBox="0 0 71.4375 26.458334"
   version="1.1"
   id="svg8"
   sodipodi:docname="logo.svg"
   inkscape:version="0.92.3 (2405546, 2018-03-11)">
  <defs
     id="defs2" />
  <sodipodi:namedview
     id="base"
     pagecolor="#ffffff"
     bordercolor="#666666"
     borderopacity="1.0"
     inkscape:pageopacity="0.0"
     inkscape:pageshadow="2"
     inkscape:zoom="1.4142136"
     inkscape:cx="105.68449"
     inkscape:cy="32.657479"
     inkscape:document-units="mm"
     inkscape:current-layer="text1029"
     showgrid="false"
     units="px"
     inkscape:window-width="1366"
     inkscape:window-height="719"
     inkscape:window-x="0"
     inkscape:window-y="20"
     inkscape:window-maximized="1" />
  <metadata
     id="metadata5">
    <rdf:RDF>
      <cc:Work
         rdf:about="">
        <dc:format>image/svg+xml</dc:format>
        <dc:type
           rdf:resource="http://purl.org/dc/dcmitype/StillImage" />
        <dc:title />
      </cc:Work>
    </rdf:RDF>
  </metadata>
  <g
     inkscape:label="Layer 1"
     inkscape:groupmode="layer"
     id="layer1"
     transform="translate(0,-270.54165)">
    <path
       style="opacity:1;vector-effect:none;fill:#33c1ff;fill-opacity:1;stroke:none;stroke-width:0.52916664;stroke-linecap:round;stroke-linejoin:round;stroke-miterlimit:0;stroke-dasharray:none;stroke-dashoffset:0;stroke-opacity:1;paint-order:markers fill stroke"
       d="M -1.9536743e-6,270.54166 H 71.4375 v 13.22916 l -15.531357,13.22916 c -22.056168,0.22634 -39.972939,-0.30514 -55.906143046325709,0 L -1.9536743e-6,282.8117 Z"
       id="rect870"
       inkscape:connector-curvature="0"
       sodipodi:nodetypes="ccccccc" />
    <g
       id="g888"
       transform="translate(5.1627276)" />
    <g
       id="g868"
       transform="translate(3.7041668)">
      <path
         transform="matrix(1.0274446,0,0,1.0271937,-0.87117338,-8.0079608)"
         d="m 20.747437,289.43153 -4.700629,2.61276 -4.613028,2.76449 -4.6130297,-2.76449 -4.7006279,-2.61276 0.087599,-5.37724 -0.087599,-5.37724 4.7006287,-2.61276 4.6130289,-2.76448 4.613029,2.76448 4.700628,2.61276 -0.0876,5.37724 z"
         inkscape:randomized="0"
         inkscape:rounded="0"
         inkscape:flatsided="false"
         sodipodi:arg2="1.0471976"
         sodipodi:arg1="0.52359878"
         sodipodi:r2="9.226058"
         sodipodi:r1="10.754485"
         sodipodi:cy="284.05429"
         sodipodi:cx="11.43378"
         sodipodi:sides="6"
         id="path817"
         style="opacity:1;vector-effect:none;fill:#005b87;fill-opacity:1;stroke:#001c29;stroke-width:0.5150947;stroke-linecap:round;stroke-linejoin:round;stroke-miterlimit:0;stroke-dasharray:none;stroke-dashoffset:0;stroke-opacity:1;paint-order:markers fill stroke"
         sodipodi:type="star" />
      <ellipse
         transform="matrix(0.88346002,-0.46850656,0.4354356,0.90021988,0,0)"
         ry="0.86960524"
         rx="0.47184408"
         cy="254.62682"
         cx="-111.88466"
         id="path891"
         style="opacity:1;vector-effect:none;fill:#a2e2ff;fill-opacity:1;stroke:#6ad1ff;stroke-width:0.26467428;stroke-linecap:round;stroke-linejoin:round;stroke-miterlimit:0;stroke-dasharray:none;stroke-dashoffset:0;stroke-opacity:1;paint-order:markers fill stroke" />
      <path
         id="path1010"
         d="m 3.4892341,285.35604 -0.4020455,0.2098 c -0.00163,0.14937 0.01329,0.28137 0.042198,0.39915 0.028897,0.11779 0.071858,0.22153 0.1261052,0.31441 0.054248,0.0929 0.1198437,0.17484 0.1942664,0.24946 0.074423,0.0747 0.1575718,0.14181 0.2469956,0.20489 L 4.0603861,286.545 c -0.1216918,-0.0632 -0.236433,-0.13171 -0.3330915,-0.21019 -0.096659,-0.0785 -0.1753264,-0.16687 -0.2251965,-0.26969 -0.049907,-0.10286 -0.068649,-0.21668 -0.067209,-0.33651 0.00144,-0.11984 0.023063,-0.24572 0.054349,-0.37257 z"
         style="opacity:1;vector-effect:none;fill:#4d4d4d;fill-opacity:1;stroke:#555555;stroke-width:0.26458332;stroke-linecap:round;stroke-linejoin:round;stroke-miterlimit:0;stroke-dasharray:none;stroke-dashoffset:0;stroke-opacity:1;paint-order:markers fill stroke"
         inkscape:connector-curvature="0" />
      <path
         id="path991"
         d="m 6.163608,284.53568 c -0.021179,-0.0541 -0.05352,-0.10292 -0.064774,-0.16166 -0.022453,-0.11717 -0.027856,-0.24167 -0.027837,-0.36617 l -2.4523267,1.2805 c -0.046877,0.13615 -0.068693,0.26427 -0.066916,0.38383 0.00115,0.0769 0.028415,0.14414 0.04925,0.2136 z"
         style="opacity:1;vector-effect:none;fill:#6c3963;fill-opacity:1;stroke:none;stroke-width:0.26458332;stroke-linecap:round;stroke-linejoin:round;stroke-miterlimit:0;stroke-dasharray:none;stroke-dashoffset:0;stroke-opacity:1;paint-order:markers fill stroke"
         inkscape:connector-curvature="0" />
      <path
         id="path1008"
         d="m 6.163608,284.53568 -2.5626038,1.3501 c 0.011542,0.0385 0.0098,0.0822 0.027302,0.1183 0.047567,0.0981 0.1199941,0.18683 0.2141303,0.26606 0.094135,0.0793 0.2095725,0.14848 0.3442143,0.20824 l 2.5144246,-1.30673 C 6.5549225,285.03 6.3633024,284.88731 6.228383,284.69628 c -0.033632,-0.0476 -0.043716,-0.10676 -0.064774,-0.1606 z"
         style="opacity:1;vector-effect:none;fill:#8b497f;fill-opacity:1;stroke:none;stroke-width:0.26458332;stroke-linecap:round;stroke-linejoin:round;stroke-miterlimit:0;stroke-dasharray:none;stroke-dashoffset:0;stroke-opacity:1;paint-order:markers fill stroke"
         inkscape:connector-curvature="0" />
      <path
         id="path1006"
         d="m 6.9089744,283.37453 -0.6747989,0.35404 c -0.035379,0.1996 -0.046815,0.37228 -0.029459,0.52201 0.017357,0.14973 0.063398,0.27652 0.1431747,0.38417 0.079778,0.10766 0.1794101,0.20916 0.2914133,0.3037 0.1120019,0.0946 0.236311,0.18219 0.3658641,0.26262 l 0.6255261,-0.3287 c -0.1609717,-0.0767 -0.3092887,-0.16236 -0.4332544,-0.2614 -0.1239663,-0.099 -0.2236748,-0.21147 -0.2866503,-0.34171 -0.062311,-0.12889 -0.085221,-0.27168 -0.081387,-0.42273 0.00383,-0.15107 0.034391,-0.31046 0.079573,-0.472 z"
         style="opacity:1;vector-effect:none;fill:#4d4d4d;fill-opacity:1;stroke:#555555;stroke-width:0.26458332;stroke-linecap:round;stroke-linejoin:round;stroke-miterlimit:0;stroke-dasharray:none;stroke-dashoffset:0;stroke-opacity:1;paint-order:markers fill stroke"
         inkscape:connector-curvature="0" />
      <path
         id="path999"
         d="m 10.973509,282.03625 c -0.03555,-0.10512 -0.06619,-0.21195 -0.06317,-0.32976 0.0038,-0.15089 0.03423,-0.30976 0.07923,-0.47109 l -3.9496328,2.07118 c -0.061889,0.17173 -0.09315,0.33374 -0.093682,0.48447 -4.111e-4,0.11649 0.033732,0.21991 0.070128,0.32226 z"
         style="opacity:1;vector-effect:none;fill:#6c3963;fill-opacity:1;stroke:none;stroke-width:0.26458332;stroke-linecap:round;stroke-linejoin:round;stroke-miterlimit:0;stroke-dasharray:none;stroke-dashoffset:0;stroke-opacity:1;paint-order:markers fill stroke"
         inkscape:connector-curvature="0" />
      <path
         id="path1004"
         d="m 10.973509,282.03625 -3.9571272,2.07706 c 0.010695,0.0301 0.00644,0.066 0.020343,0.0948 0.0605,0.12512 0.1533929,0.23787 0.274622,0.33779 0.121228,0.1 0.271006,0.18669 0.4469968,0.25963 l 3.9539154,-2.07332 c -0.161165,-0.0768 -0.309986,-0.16281 -0.434149,-0.26177 -0.124161,-0.0989 -0.223909,-0.21119 -0.286935,-0.34154 -0.01364,-0.0282 -0.0077,-0.0631 -0.01767,-0.0926 z"
         style="opacity:1;vector-effect:none;fill:#8b497f;fill-opacity:1;stroke:none;stroke-width:0.26458332;stroke-linecap:round;stroke-linejoin:round;stroke-miterlimit:0;stroke-dasharray:none;stroke-dashoffset:0;stroke-opacity:1;paint-order:markers fill stroke"
         inkscape:connector-curvature="0" />
      <path
         id="path1002"
         d="m 11.685328,280.87002 -0.565098,0.2963 c -0.0619,0.17174 -0.09296,0.33408 -0.09347,0.48507 -5.06e-4,0.15097 0.02953,0.29055 0.09077,0.4172 0.06045,0.12503 0.152906,0.23768 0.274179,0.33737 0.121272,0.0996 0.271567,0.18637 0.447331,0.25929 l 0.618551,-0.32393 c -0.129873,-0.0847 -0.245893,-0.18416 -0.34601,-0.29462 -0.100112,-0.11044 -0.184233,-0.23173 -0.250982,-0.35978 -0.06674,-0.12805 -0.115983,-0.26291 -0.145752,-0.40039 -0.02977,-0.1375 -0.04033,-0.27771 -0.02951,-0.41651 z"
         style="opacity:1;vector-effect:none;fill:#4d4d4d;fill-opacity:1;stroke:#555555;stroke-width:0.26458332;stroke-linecap:round;stroke-linejoin:round;stroke-miterlimit:0;stroke-dasharray:none;stroke-dashoffset:0;stroke-opacity:1;paint-order:markers fill stroke"
         inkscape:connector-curvature="0" />
      <path
         id="path1000"
         d="m 11.892925,280.74545 c -0.03743,-0.002 -0.06139,0.0168 -0.08696,0.0483 -0.02099,0.13504 -0.01684,0.2758 0.0096,0.41583 0.02652,0.14004 0.07561,0.27932 0.144323,0.41177 0.06871,0.13248 0.157056,0.25792 0.26264,0.37026 0.105584,0.11234 0.228327,0.21153 0.365451,0.29118 0.04699,-9.4e-4 0.07391,-0.009 0.09432,-0.0459 0.02317,-0.0421 0.03597,-0.12001 0.02902,-0.21718 -0.007,-0.0972 -0.03233,-0.2127 -0.07154,-0.33283 -0.03921,-0.12014 -0.09254,-0.24487 -0.15586,-0.3608 -0.119491,-0.21879 -0.277237,-0.40791 -0.415204,-0.50556 -0.06898,-0.0489 -0.132035,-0.0735 -0.175873,-0.075 z"
         style="opacity:1;vector-effect:none;fill:#33c1ff;fill-opacity:0;stroke:#555555;stroke-width:0.26458332;stroke-linecap:round;stroke-linejoin:round;stroke-miterlimit:0;stroke-dasharray:none;stroke-dashoffset:0;stroke-opacity:1;paint-order:markers fill stroke"
         inkscape:connector-curvature="0" />
      <path
         id="path998"
         d="m 11.82718,280.63843 -0.125748,0.0653 -5.6017169,2.93757 -0.00635,0.0326 c 0.0067,0.0554 -0.00536,0.11181 -0.00665,0.16767 l -3.1468535,1.64331 c -0.00295,0.15227 0.010547,0.30112 0.040098,0.44241 0.029557,0.14129 0.07514,0.27502 0.1370206,0.3979 0.061878,0.12288 0.1398671,0.23469 0.2338773,0.33172 0.09401,0.0971 0.2041109,0.17936 0.3300584,0.24312 l 3.1702316,-1.64873 c 0.05292,0.0519 0.096727,0.0712 0.1491444,0.10984 l 5.7175001,-2.99781 c 0.04734,-0.0354 0.08036,-0.0909 0.101748,-0.15385 0.02139,-0.063 0.03122,-0.13358 0.03199,-0.19962 -0.0081,-0.11262 -0.03538,-0.23841 -0.07741,-0.36713 -0.04204,-0.12874 -0.0989,-0.26025 -0.166481,-0.38398 -0.06392,-0.11703 -0.137119,-0.22607 -0.214996,-0.32028 -0.07788,-0.0942 -0.160345,-0.17371 -0.242898,-0.23213 -0.05241,-0.0386 -0.111204,-0.0568 -0.167782,-0.0645 -0.05658,-0.008 -0.111,-0.005 -0.154799,-0.003 z m 0.06574,0.10702 c 0.04386,0.002 0.106887,0.0261 0.175873,0.075 0.137966,0.0977 0.295711,0.28677 0.415204,0.50556 0.06332,0.11593 0.116643,0.24066 0.155858,0.36079 0.03922,0.12015 0.06455,0.23567 0.07154,0.33283 0.0069,0.0972 -0.0058,0.17518 -0.02902,0.2172 -0.02038,0.0369 -0.04727,0.0456 -0.09432,0.0459 -0.137123,-0.0797 -0.259867,-0.17884 -0.365452,-0.29119 -0.105584,-0.11233 -0.19392,-0.23778 -0.262638,-0.37025 -0.06871,-0.13246 -0.117796,-0.27174 -0.144324,-0.41177 -0.02652,-0.14003 -0.03074,-0.28078 -0.0096,-0.41584 0.02559,-0.0315 0.04957,-0.0495 0.08696,-0.0483 z m -0.207597,0.12457 c -0.01081,0.1388 -2.62e-4,0.27901 0.02951,0.41651 0.02977,0.13748 0.07901,0.27234 0.145754,0.40039 0.06674,0.12805 0.150866,0.24934 0.250981,0.35978 0.100122,0.11046 0.216135,0.20991 0.34601,0.29462 l -0.618551,0.32393 c -0.175764,-0.0729 -0.326058,-0.15959 -0.447332,-0.25929 -0.121273,-0.0997 -0.21373,-0.21234 -0.274178,-0.33736 -0.06123,-0.12666 -0.09127,-0.26624 -0.09077,-0.41721 5.06e-4,-0.15099 0.03157,-0.31333 0.09347,-0.48507 z m -0.695725,0.36529 c -0.04501,0.16133 -0.0755,0.32025 -0.07937,0.47115 -0.0038,0.15089 0.01886,0.29375 0.08109,0.42248 0.06302,0.13035 0.162759,0.24273 0.286921,0.3417 0.124162,0.0989 0.272906,0.18459 0.43407,0.26132 l -3.9538101,2.07361 c -0.175991,-0.0729 -0.3261264,-0.15964 -0.4473544,-0.25957 -0.1212292,-0.1 -0.2137332,-0.21279 -0.2742306,-0.33792 -0.061234,-0.12665 -0.091268,-0.26621 -0.09074,-0.41693 5.308e-4,-0.15073 0.031635,-0.31279 0.093523,-0.48452 z m -4.0806259,2.13922 c -0.045178,0.16154 -0.075742,0.32093 -0.079573,0.472 -0.00383,0.15105 0.019079,0.29384 0.081387,0.42273 0.062975,0.13024 0.1626839,0.24269 0.2866502,0.34171 0.1239657,0.099 0.2722828,0.18469 0.4332544,0.2614 l -0.625526,0.3287 c -0.1295531,-0.0805 -0.2538623,-0.16807 -0.3658641,-0.26262 -0.1120032,-0.0946 -0.2116353,-0.19604 -0.2914133,-0.3037 -0.079776,-0.10765 -0.1258194,-0.23444 -0.1431747,-0.38417 -0.017358,-0.14973 -0.00592,-0.32241 0.029459,-0.52201 z m -0.8380836,0.6334 c -2.1e-6,0.1245 0.00549,0.24901 0.027922,0.36617 0.022438,0.11716 0.061841,0.22683 0.1292984,0.32234 0.1349196,0.19102 0.3266601,0.3337 0.4728136,0.47534 l -2.5140798,1.30682 c -0.1346428,-0.0598 -0.2503346,-0.1294 -0.34447,-0.2086 -0.094136,-0.0793 -0.1665955,-0.16799 -0.214162,-0.26605 -0.049083,-0.10121 -0.074856,-0.21197 -0.076633,-0.33154 -0.00178,-0.11957 0.020407,-0.24802 0.067283,-0.38417 z m -2.5816567,1.34811 c -0.031287,0.12685 -0.05291,0.25273 -0.054349,0.37258 -0.00144,0.11982 0.017306,0.23362 0.067209,0.3365 0.04987,0.10277 0.1285375,0.19121 0.2251967,0.26969 0.096658,0.0784 0.2113987,0.14697 0.3330913,0.21019 l -0.3636322,0.18875 c -0.089422,-0.0631 -0.1725721,-0.13024 -0.2469956,-0.20489 -0.074423,-0.0746 -0.1400182,-0.15659 -0.1942663,-0.24946 -0.054247,-0.0929 -0.097207,-0.19662 -0.1261052,-0.31441 -0.028899,-0.11778 -0.043819,-0.24978 -0.042198,-0.39915 z"
         style="opacity:1;vector-effect:none;fill:#000000;fill-opacity:1;stroke:#000000;stroke-width:0.26458332;stroke-linecap:round;stroke-linejoin:round;stroke-miterlimit:0;stroke-dasharray:none;stroke-dashoffset:0;stroke-opacity:1;paint-order:markers fill stroke"
         inkscape:connector-curvature="0" />
      <path
         inkscape:connector-curvature="0"
         id="path819-3-5-3"
         d="m 7.6008707,284.14859 a 0.89940905,0.89922588 0 0 0 -0.8992933,0.89911 0.89940905,0.89922588 0 0 0 0.1565783,0.50569 c -0.3077015,0.45618 -0.6623474,1.07971 -1.043026,1.73893 -0.7503956,1.29947 -1.5767818,2.58755 -1.2441436,2.77956 0.3326385,0.19202 1.035072,-1.16783 1.7854674,-2.46729 0.3363631,-0.58247 0.6880875,-1.16265 0.9397332,-1.63703 -0.022091,0.54728 -0.00792,1.21985 -0.00792,1.88675 0,1.50048 -0.07149,3.02927 0.3126081,3.02926 0.3840976,0 0.3126067,-1.52878 0.3126067,-3.02926 0,-0.67772 0.014482,-1.36116 -0.016123,-1.91406 0.2456364,0.47864 0.6045788,1.07024 0.9476587,1.66434 0.7503952,1.29946 1.4531018,2.65931 1.7857408,2.46729 0.332639,-0.19201 -0.493748,-1.48009 -1.2441444,-2.77956 -0.3804908,-0.65889 -0.7348839,-1.28228 -1.0424786,-1.73838 a 0.89940905,0.89922588 0 0 0 0.1560296,-0.50624 0.89940905,0.89922588 0 0 0 -0.8992914,-0.89911 z"
         style="fill:#001c29;fill-opacity:1;stroke:#000000;stroke-width:0.26458332px;stroke-linecap:butt;stroke-linejoin:miter;stroke-opacity:1" />
      <ellipse
         ry="0.40693602"
         rx="0.40701887"
         cy="284.8978"
         cx="7.6008682"
         id="path1012"
         style="opacity:1;vector-effect:none;fill:#8b497f;fill-opacity:1;stroke:#000000;stroke-width:0.33995327;stroke-linecap:round;stroke-linejoin:round;stroke-miterlimit:4;stroke-dasharray:none;stroke-dashoffset:0;stroke-opacity:1;paint-order:markers fill stroke" />
      <path
         d="m 17.954254,279.86391 -0.418858,-0.76585 -0.765851,-0.41886 0.765851,-0.41886 0.418858,-0.76585 0.418858,0.76585 0.765851,0.41886 -0.765851,0.41886 z"
         inkscape:randomized="0"
         inkscape:rounded="0"
         inkscape:flatsided="false"
         sodipodi:arg2="2.3561945"
         sodipodi:arg1="1.5707963"
         sodipodi:r2="0.59235436"
         sodipodi:r1="1.184709"
         sodipodi:cy="278.6792"
         sodipodi:cx="17.954254"
         sodipodi:sides="4"
         id="path960"
         style="opacity:1;vector-effect:none;fill:#fbb13c;fill-opacity:1;stroke:none;stroke-width:0.26458332;stroke-linecap:round;stroke-linejoin:round;stroke-miterlimit:0;stroke-dasharray:none;stroke-dashoffset:0;stroke-opacity:1;paint-order:markers fill stroke"
         sodipodi:type="star" />
      <path
         d="m 17.028988,281.80435 -0.143912,-0.26313 -0.263133,-0.14391 0.263133,-0.14391 0.143912,-0.26314 0.143912,0.26314 0.263133,0.14391 -0.263133,0.14391 z"
         inkscape:randomized="0"
         inkscape:rounded="0"
         inkscape:flatsided="false"
         sodipodi:arg2="2.3561945"
         sodipodi:arg1="1.5707963"
         sodipodi:r2="0.20352247"
         sodipodi:r1="0.40704495"
         sodipodi:cy="281.39731"
         sodipodi:cx="17.028988"
         sodipodi:sides="4"
         id="path962"
         style="opacity:1;vector-effect:none;fill:#fbb13c;fill-opacity:1;stroke:none;stroke-width:0.26458332;stroke-linecap:round;stroke-linejoin:round;stroke-miterlimit:0;stroke-dasharray:none;stroke-dashoffset:0;stroke-opacity:1;paint-order:markers fill stroke"
         sodipodi:type="star" />
      <path
         d="m 14.919917,279.71605 -0.314262,-0.57461 -0.574606,-0.31426 0.574606,-0.31426 0.314262,-0.57461 0.314263,0.57461 0.574606,0.31426 -0.574606,0.31426 z"
         inkscape:randomized="0"
         inkscape:rounded="0"
         inkscape:flatsided="false"
         sodipodi:arg2="2.3561945"
         sodipodi:arg1="1.5707963"
         sodipodi:r2="0.44443429"
         sodipodi:r1="0.88886857"
         sodipodi:cy="278.82718"
         sodipodi:cx="14.919917"
         sodipodi:sides="4"
         id="path964"
         style="opacity:1;vector-effect:none;fill:#fbb13c;fill-opacity:1;stroke:none;stroke-width:0.26458332;stroke-linecap:round;stroke-linejoin:round;stroke-miterlimit:0;stroke-dasharray:none;stroke-dashoffset:0;stroke-opacity:1;paint-order:markers fill stroke"
         sodipodi:type="star" />
    </g>
    <flowRoot
       xml:space="preserve"
       id="flowRoot1019"
       style="font-style:normal;font-weight:normal;font-size:40px;line-height:1.25;font-family:sans-serif;letter-spacing:0px;word-spacing:0px;fill:#000000;fill-opacity:1;stroke:none"><flowRegion
         id="flowRegion1021"><rect
           id="rect1023"
           width="161.12103"
           height="40.571529"
           x="77.274971"
           y="29.123894" /></flowRegion><flowPara
         id="flowPara1025" /></flowRoot>    <g
       aria-label="Kapti"
       style="font-style:normal;font-variant:normal;font-weight:normal;font-stretch:normal;font-size:11.50400448px;line-height:1.25;font-family:'Poetsen One';-inkscape-font-specification:'Poetsen One, Normal';font-variant-ligatures:normal;font-variant-caps:normal;font-variant-numeric:normal;font-feature-settings:normal;text-align:start;letter-spacing:0px;word-spacing:0px;writing-mode:lr-tb;text-anchor:start;fill:#4d4d4d;fill-opacity:1;stroke:none;stroke-width:0.26458332"
       id="text1029">
      <path
         d="m 32.556547,286.29594 q 0,0.092 -0.11504,0.24158 -0.103536,0.13805 -0.299104,0.2761 -0.184064,0.13805 -0.437152,0.24159 -0.241584,0.10353 -0.51768,0.10353 -0.425648,0 -0.747761,-0.26459 -0.322112,-0.2761 -0.586704,-0.74776 -0.253088,-0.47167 -0.471664,-1.11589 -0.218576,-0.65573 -0.448656,-1.41499 l -0.437152,0.2876 -0.218576,2.96803 q -0.0115,0.092 -0.04602,0.13805 -0.03451,0.0345 -0.138048,0.0345 h -0.632721 q -0.655728,0 -0.931824,-0.25309 -0.264592,-0.26459 -0.264592,-0.77077 0,-0.16105 0.0115,-0.48316 0.02301,-0.33362 0.05752,-0.77077 0.03451,-0.44866 0.06902,-0.97784 0.04602,-0.52919 0.09203,-1.08138 0.08053,-1.10438 0.126544,-1.74861 0.05752,-0.64422 0.08053,-1.01235 0.02301,-0.37963 0.03451,-0.55219 0.0115,-0.18407 0.0115,-0.34512 0,-0.17256 0.184064,-0.17256 h 0.63272 q 0.368129,0 0.586705,0.0805 0.23008,0.069 0.356624,0.20707 0.126544,0.13805 0.17256,0.34512 0.04602,0.19557 0.04602,0.46016 0,0.26459 -0.03451,0.8628 -0.02301,0.5867 -0.08053,1.32296 0.391136,-0.48317 0.931824,-1.19642 0.552192,-0.71325 1.334465,-1.76011 0.03451,-0.046 0.09203,-0.11504 0.06902,-0.0805 0.138048,-0.14955 0.08053,-0.069 0.161056,-0.11504 0.09203,-0.0575 0.17256,-0.0575 0.149552,0 0.34512,0.16105 0.195568,0.14956 0.368128,0.37964 0.17256,0.21857 0.2876,0.46016 0.126544,0.23008 0.126544,0.39113 0,0.33362 -0.598208,1.00085 -0.598208,0.65573 -1.714097,1.51853 0.195568,0.33362 0.448657,0.72475 0.253088,0.37963 0.506176,0.78227 0.253088,0.39114 0.494672,0.77077 0.241584,0.36813 0.425648,0.66723 0.195568,0.2876 0.310608,0.47167 0.11504,0.18406 0.11504,0.20707 z"
         style="font-style:normal;font-variant:normal;font-weight:normal;font-stretch:normal;font-size:11.50400448px;font-family:'Poetsen One';-inkscape-font-specification:'Poetsen One, Normal';font-variant-ligatures:normal;font-variant-caps:normal;font-variant-numeric:normal;font-feature-settings:normal;text-align:start;writing-mode:lr-tb;baseline-shift:baseline;text-anchor:start;fill:#4d4d4d;fill-opacity:1;stroke-width:0.26458332"
         id="path838" />
      <path
         d="m 32.971231,285.62871 q 0,-1.03536 0.931824,-1.62207 0.931824,-0.5867 2.749457,-0.63272 0.0115,-0.12654 0.0115,-0.20707 0.0115,-0.092 0.0115,-0.21857 0,-0.36813 -0.138048,-0.58671 -0.138048,-0.21857 -0.5752,-0.21857 -0.241584,0 -0.391136,0.069 -0.149552,0.069 -0.241585,0.19557 -0.09203,0.11504 -0.149552,0.2876 -0.05752,0.17256 -0.103536,0.37963 -0.02301,0.10354 -0.103536,0.13805 -0.08053,0.023 -0.253088,0.023 -1.173408,0 -1.173408,-0.88581 0,-0.35663 0.161056,-0.67874 0.17256,-0.32211 0.494672,-0.55219 0.333616,-0.24159 0.828288,-0.37963 0.494673,-0.13805 1.150401,-0.13805 1.276944,0 1.852145,0.52918 0.5752,0.52919 0.5752,1.49552 0,0.12655 -0.03451,0.46016 -0.02301,0.32212 -0.06902,0.69024 -0.03451,0.35663 -0.06902,0.67874 -0.02301,0.32211 -0.02301,0.44866 0,0.2876 0.103536,0.41414 0.103536,0.11504 0.23008,0.16106 0.138048,0.046 0.241584,0.069 0.103536,0.023 0.103536,0.11504 0,0.25309 -0.06902,0.51768 -0.06902,0.26459 -0.23008,0.48317 -0.149552,0.21858 -0.425648,0.35662 -0.264592,0.13805 -0.655729,0.13805 -0.552192,0 -0.828288,-0.26459 -0.276096,-0.26459 -0.368128,-0.73626 -0.276096,0.40264 -0.724752,0.70175 -0.437153,0.2991 -1.150401,0.2991 -0.34512,0 -0.655728,-0.0805 -0.299104,-0.0805 -0.529184,-0.26459 -0.218576,-0.18406 -0.356624,-0.47166 -0.126544,-0.29911 -0.126544,-0.71325 z m 3.577745,-1.31146 q -0.299104,0 -0.586704,0.046 -0.2876,0.046 -0.51768,0.14955 -0.218577,0.092 -0.356625,0.25309 -0.138048,0.16105 -0.138048,0.39113 0,0.2646 0.161056,0.36813 0.17256,0.10354 0.368129,0.10354 0.184064,0 0.368128,-0.0805 0.184064,-0.0805 0.322112,-0.24158 0.149552,-0.17256 0.253088,-0.41415 0.103536,-0.24158 0.126544,-0.5752 z"
         style="font-style:normal;font-variant:normal;font-weight:normal;font-stretch:normal;font-size:11.50400448px;font-family:'Poetsen One';-inkscape-font-specification:'Poetsen One, Normal';font-variant-ligatures:normal;font-variant-caps:normal;font-variant-numeric:normal;font-feature-settings:normal;text-align:start;writing-mode:lr-tb;baseline-shift:baseline;text-anchor:start;fill:#4d4d4d;fill-opacity:1;stroke-width:0.26458332"
         id="path840" />
      <path
         d="m 43.767739,280.60146 q 1.081376,0 1.622064,0.66723 0.552193,0.66723 0.552193,2.10523 0,0.89732 -0.207072,1.59906 -0.207072,0.70174 -0.575201,1.19642 -0.368128,0.48317 -0.8628,0.73625 -0.494672,0.25309 -1.069872,0.25309 -0.609713,0 -0.954833,-0.26459 -0.34512,-0.26459 -0.540688,-0.74776 -0.03451,0.41414 -0.05752,0.63272 -0.02301,0.21858 -0.03451,0.34512 -0.0115,0.13805 -0.02301,0.24158 0,0.10354 -0.02301,0.2761 -0.0115,0.17256 -0.03451,0.47166 -0.02301,0.29911 -0.06902,0.82829 -0.0115,0.13805 -0.05752,0.18407 -0.04602,0.046 -0.195568,0.046 h -0.414144 q -0.356624,0 -0.586705,-0.0805 -0.218576,-0.069 -0.356624,-0.20707 -0.126544,-0.13805 -0.184064,-0.34512 -0.04602,-0.19557 -0.04602,-0.46016 0,-0.11504 0.03451,-0.62121 0.03451,-0.50618 0.08053,-1.20793 0.05752,-0.71324 0.11504,-1.53003 0.06902,-0.81678 0.126544,-1.55304 0.05752,-0.74776 0.09203,-1.32296 0.04602,-0.5752 0.06902,-0.79378 0.0115,-0.25308 0.05752,-0.2991 0.03451,-0.0345 0.184065,-0.0345 h 0.448656 q 0.621216,0 0.897312,0.26459 0.2876,0.25309 0.2876,0.60971 0.264592,-0.52918 0.678736,-0.75926 0.425649,-0.23008 1.046865,-0.23008 z m -0.839793,1.53003 q -0.586704,0 -0.8628,0.50618 -0.276096,0.50617 -0.276096,1.38048 0,0.2991 0.03451,0.5867 0.04602,0.2876 0.149552,0.51768 0.103536,0.23008 0.276096,0.36813 0.184064,0.13805 0.46016,0.13805 0.494673,0 0.828289,-0.48317 0.333616,-0.48317 0.333616,-1.51853 0,-0.2876 -0.04602,-0.55219 -0.03451,-0.2761 -0.138048,-0.48317 -0.103536,-0.20707 -0.2876,-0.33361 -0.184064,-0.12655 -0.471665,-0.12655 z"
         style="font-style:normal;font-variant:normal;font-weight:normal;font-stretch:normal;font-size:11.50400448px;font-family:'Poetsen One';-inkscape-font-specification:'Poetsen One, Normal';font-variant-ligatures:normal;font-variant-caps:normal;font-variant-numeric:normal;font-feature-settings:normal;text-align:start;writing-mode:lr-tb;baseline-shift:baseline;text-anchor:start;fill:#4d4d4d;fill-opacity:1;stroke-width:0.26458332"
         id="path842" />
      <path
         d="m 49.293435,282.26954 q -0.03451,0.43715 -0.08053,0.8628 -0.03451,0.42565 -0.06902,0.80528 -0.03451,0.37963 -0.05752,0.67874 -0.0115,0.2991 -0.0115,0.46016 0,0.2991 0.06902,0.40264 0.06902,0.092 0.23008,0.092 0.126544,0 0.218576,-0.046 0.09203,-0.046 0.17256,-0.10353 0.08053,-0.0575 0.138048,-0.10354 0.06902,-0.046 0.149552,-0.046 0.08053,0 0.149552,0.092 0.06902,0.092 0.06902,0.42564 0,0.63272 -0.34512,1.00085 -0.34512,0.36813 -1.184912,0.36813 -0.828289,0 -1.230929,-0.37963 -0.391136,-0.39114 -0.391136,-1.18491 0,-0.17256 0.0115,-0.40264 0.02301,-0.24159 0.05752,-0.62122 0.03451,-0.37963 0.08053,-0.93182 0.05752,-0.5522 0.11504,-1.36898 h -0.609712 q -0.09203,0 -0.11504,-0.0345 -0.0115,-0.046 -0.0115,-0.12655 l 0.03451,-0.5867 q 0.0115,-0.14955 0.03451,-0.2876 0.03451,-0.14955 0.11504,-0.26459 0.09203,-0.11504 0.253088,-0.18407 0.161056,-0.069 0.425648,-0.069 0.08053,-0.20707 0.184064,-0.49467 0.103536,-0.2876 0.207072,-0.5522 0.103536,-0.27609 0.195568,-0.46016 0.103536,-0.18406 0.184064,-0.18406 h 0.333617 q 0.483168,0 0.667232,0.2991 0.184064,0.29911 0.184064,0.71325 0,0.23008 -0.03451,0.67874 h 1.20792 q 0.184064,0 0.184064,0.16105 l -0.04602,0.62122 q -0.02301,0.34512 -0.195568,0.5637 -0.161056,0.20707 -0.678736,0.20707 z"
         style="font-style:normal;font-variant:normal;font-weight:normal;font-stretch:normal;font-size:11.50400448px;font-family:'Poetsen One';-inkscape-font-specification:'Poetsen One, Normal';font-variant-ligatures:normal;font-variant-caps:normal;font-variant-numeric:normal;font-feature-settings:normal;text-align:start;writing-mode:lr-tb;baseline-shift:baseline;text-anchor:start;fill:#4d4d4d;fill-opacity:1;stroke-width:0.26458332"
         id="path844" />
      <path
         d="m 52.588614,287.0437 q -0.356624,0 -0.586704,-0.069 -0.218576,-0.0805 -0.356624,-0.21858 -0.126544,-0.13805 -0.184064,-0.33362 -0.04602,-0.20707 -0.04602,-0.47166 0,-0.17256 0.0115,-0.48317 0.02301,-0.32211 0.06902,-0.8743 0.04602,-0.5637 0.103536,-1.41499 0.06902,-0.8628 0.161056,-2.12825 0.0115,-0.25308 0.05752,-0.2991 0.03451,-0.0345 0.184064,-0.0345 h 0.448656 q 0.356624,0 0.5752,0.069 0.23008,0.069 0.356624,0.20707 0.138048,0.13805 0.184064,0.33362 0.05752,0.19557 0.05752,0.43715 0,0.17256 -0.02301,0.51768 -0.02301,0.34512 -0.06902,0.94333 -0.03451,0.58671 -0.103536,1.47251 -0.06902,0.87431 -0.17256,2.11674 -0.0115,0.13805 -0.05752,0.18407 -0.04602,0.046 -0.195568,0.046 z m -0.816784,-7.68467 q 0,-0.46016 0.333616,-0.72476 0.333616,-0.26459 0.897312,-0.26459 0.494672,0 0.713248,0.20707 0.230081,0.19557 0.230081,0.52919 0,0.42565 -0.322113,0.71325 -0.310608,0.27609 -0.92032,0.27609 -0.931824,0 -0.931824,-0.73625 z"
         style="font-style:normal;font-variant:normal;font-weight:normal;font-stretch:normal;font-size:11.50400448px;font-family:'Poetsen One';-inkscape-font-specification:'Poetsen One, Normal';font-variant-ligatures:normal;font-variant-caps:normal;font-variant-numeric:normal;font-feature-settings:normal;text-align:start;writing-mode:lr-tb;baseline-shift:baseline;text-anchor:start;fill:#4d4d4d;fill-opacity:1;stroke-width:0.26458332"
         id="path846" />
    </g>
    <path
       style="opacity:1;vector-effect:none;fill:none;fill-opacity:1;stroke:#006494;stroke-width:1.05833316;stroke-linecap:round;stroke-linejoin:miter;stroke-miterlimit:0.1;stroke-dasharray:none;stroke-dashoffset:0;stroke-opacity:1;paint-order:markers fill stroke"
       d="M 74.131369,284.16769 H 71.569791 L 56.065213,296.47064 H 0.53669981"
       id="rect870-5"
       inkscape:connector-curvature="0"
       sodipodi:nodetypes="cccc" />
  </g>
</svg>
