<?xml version="1.0" encoding="UTF-8" standalone="no"?>
<svg
   xmlns:osb="http://www.openswatchbook.org/uri/2009/osb"
   xmlns:dc="http://purl.org/dc/elements/1.1/"
   xmlns:cc="http://creativecommons.org/ns#"
   xmlns:rdf="http://www.w3.org/1999/02/22-rdf-syntax-ns#"
   xmlns:svg="http://www.w3.org/2000/svg"
   xmlns="http://www.w3.org/2000/svg"
   id="svg8"
   version="1.1"
   viewBox="0 0 12.7 12.7"
   height="48"
   width="48">
  <defs
     id="defs2">
    <linearGradient
       osb:paint="solid"
       id="linearGradient2413">
      <stop
         id="stop2411"
         offset="0"
         style="stop-color:#000000;stop-opacity:1;" />
    </linearGradient>
  </defs>
  <metadata
     id="metadata5">
    <rdf:RDF>
      <cc:Work
         rdf:about="">
        <dc:format>image/svg+xml</dc:format>
        <dc:type
           rdf:resource="http://purl.org/dc/dcmitype/StillImage" />
        <dc:title></dc:title>
      </cc:Work>
    </rdf:RDF>
  </metadata>
  <g
     style="display:inline"
     transform="translate(0,-284.29998)"
     id="layer1">
    <circle
       cy="290.64999"
       cx="6.3499999"
       id="path815"
       style="fill:none;stroke:#fa7921;stroke-width:0.51699585;stroke-miterlimit:4;stroke-dasharray:none;stroke-opacity:1"
       r="6.0914688" />
    <g
       transform="matrix(1.1019343,0,0,1.1019343,-14.970901,-29.212054)"
       id="g2426">
      <path
         style="fill:#fa7921;fill-opacity:1;stroke:none;stroke-width:0.26499999;stroke-linecap:butt;stroke-linejoin:round;stroke-miterlimit:4;stroke-dasharray:none;stroke-opacity:1;paint-order:stroke fill markers"
         d="m 15.35951,289.8278 c 0,-2.22099 1.061192,-2.16667 3.646012,-2.16667 2.313653,0 4.332193,-0.006 4.332193,-0.82048 0,2.20438 -2.900947,1.95414 -4.242746,1.95414 -1.341798,0 -3.735459,-0.28412 -3.735459,1.03301 z"
         id="path959" />
      <path
         style="fill:#fa7921;fill-opacity:1;stroke:none;stroke-width:0.29222932px;stroke-linecap:butt;stroke-linejoin:miter;stroke-opacity:1"
         d="m 17.552708,288.63025 c 0,1.28144 -0.03388,4.50571 -0.677711,4.75374 -0.643825,0.24802 1.592621,0.53737 1.795934,0.0827 0.203313,-0.45471 0,-3.4723 0,-4.75374 -0.101657,0 -1.118223,-0.0827 -1.118223,-0.0827 z"
         id="path2419" />
      <path
         style="fill:#fa7921;fill-opacity:1;stroke:none;stroke-width:0.30470949px;stroke-linecap:butt;stroke-linejoin:miter;stroke-opacity:1"
         d="m 19.973174,288.21999 c -0.01258,1.51711 0.02435,4.19516 -0.123369,5.18464 0,0 0.980661,0.33643 1.211978,-0.0339 0.231317,-0.37034 0.175774,-4.43083 -0.101657,-5.20014 -0.277432,-0.7693 -0.986952,0.0494 -0.986952,0.0494 z"
         id="path2421" />
    </g>
  </g>
</svg>
