<?xml version="1.0" encoding="UTF-8" standalone="no"?>
<!-- Generator: Adobe Illustrator 22.1.0, SVG Export Plug-In . SVG Version: 6.00 Build 0)  -->

<svg
   xmlns:osb="http://www.openswatchbook.org/uri/2009/osb"
   xmlns:dc="http://purl.org/dc/elements/1.1/"
   xmlns:cc="http://creativecommons.org/ns#"
   xmlns:rdf="http://www.w3.org/1999/02/22-rdf-syntax-ns#"
   xmlns:svg="http://www.w3.org/2000/svg"
   xmlns="http://www.w3.org/2000/svg"
   xmlns:sodipodi="http://sodipodi.sourceforge.net/DTD/sodipodi-0.dtd"
   xmlns:inkscape="http://www.inkscape.org/namespaces/inkscape"
   version="1.1"
   id="Capa_1"
   x="0px"
   y="0px"
   viewBox="0 0 35.000003 34.999999"
   xml:space="preserve"
   sodipodi:docname="Seidai_footer-wh.svg"
   width="50.000004"
   height="50"
   inkscape:version="0.92.3 (2405546, 2018-03-11)"><metadata
   id="metadata21"><rdf:RDF><cc:Work
       rdf:about=""><dc:format>image/svg+xml</dc:format><dc:type
         rdf:resource="http://purl.org/dc/dcmitype/StillImage" /><dc:title></dc:title></cc:Work></rdf:RDF></metadata><defs
   id="defs19"><linearGradient
     id="linearGradient845"
     osb:paint="solid"><stop
       style="stop-color:#000000;stop-opacity:1;"
       offset="0"
       id="stop843" /></linearGradient></defs><sodipodi:namedview
   pagecolor="#ffffff"
   bordercolor="#666666"
   borderopacity="1"
   objecttolerance="10"
   gridtolerance="10"
   guidetolerance="10"
   inkscape:pageopacity="0"
   inkscape:pageshadow="2"
   inkscape:window-width="1366"
   inkscape:window-height="719"
   id="namedview17"
   showgrid="false"
   fit-margin-top="0"
   fit-margin-left="0"
   fit-margin-right="0"
   fit-margin-bottom="0"
   scale-x="0.7"
   inkscape:zoom="4.6566693"
   inkscape:cx="49.25995"
   inkscape:cy="36.076924"
   inkscape:window-x="0"
   inkscape:window-y="20"
   inkscape:window-maximized="1"
   inkscape:current-layer="Capa_1" />
<style
   type="text/css"
   id="style2">
	.st0{fill:#FFFF00;}
	.st1{fill:#FF1414;}
	.st2{fill:#500070;}
	.st3{fill:#14B414;}
	.st4{fill:#6666FF;}
</style>





<path
   d="M 23.518859,23.82751 C 20.79133,20.08874 18.910537,16.37839 17.87905,12.68862 V 11.49218 H 34.998603 V 11.31172 L 31.78612,8.20463 29.31518,10.59492 H 17.87905 V 2.82086 L 19.115808,1.62442 15.451728,0 h -0.04358 c 0.102638,1.79977 0.153956,5.33225 0.153956,10.59744 H 0 v 0.0413 l 1.1931342,1.15514 2.163037,-0.29911 H 15.562063 c -0.205271,3.29014 -0.797987,6.4281 -1.775586,9.41913 -0.977604,2.99096 -2.704437,5.62877 -5.1779467,7.92099 C 6.2530497,31.01889 3.3818299,32.83924 0,34.30126 V 35 c 4.8828699,-1.5883 8.783008,-3.81612 11.700414,-6.6885 2.986685,-2.93944 4.944453,-7.44919 5.870728,-13.52918 1.028917,3.78777 2.781415,7.42595 5.252361,10.91202 2.470943,3.48866 5.408876,6.22958 8.806101,8.22269 0.715879,-1.18867 1.839736,-1.8333 3.366433,-1.94159 V 31.36693 C 30.06955,30.06997 26.243823,27.55599 23.518859,23.82751 Z"
   id="path14"
   style="fill:#ffffff;stroke:none;stroke-width:0.02572162"
   inkscape:connector-curvature="0" />
<rect
   style="fill:none;stroke:#ffffff;stroke-width:0.69999999;stroke-miterlimit:4;stroke-dasharray:none;stroke-opacity:1"
   id="rect831"
   width="34.845139"
   height="34.845135"
   x="0.077431716"
   y="0.077431679" /></svg>