<?xml version="1.0" encoding="UTF-8" standalone="no"?>
<!-- Created with Inkscape (http://www.inkscape.org/) -->

<svg
   xmlns:dc="http://purl.org/dc/elements/1.1/"
   xmlns:cc="http://creativecommons.org/ns#"
   xmlns:rdf="http://www.w3.org/1999/02/22-rdf-syntax-ns#"
   xmlns:svg="http://www.w3.org/2000/svg"
   xmlns="http://www.w3.org/2000/svg"
   xmlns:sodipodi="http://sodipodi.sourceforge.net/DTD/sodipodi-0.dtd"
   xmlns:inkscape="http://www.inkscape.org/namespaces/inkscape"
   width="960.00006"
   height="300"
   viewBox="0 0 254.00002 79.375005"
   version="1.1"
   id="svg8"
   sodipodi:docname="Fisica_banner.svg"
   inkscape:version="0.92.3 (2405546, 2018-03-11)">
  <defs
     id="defs2">
    <inkscape:perspective
       sodipodi:type="inkscape:persp3d"
       inkscape:vp_x="0 : 26.458338 : 1"
       inkscape:vp_y="0 : 1000 : 0"
       inkscape:vp_z="84.666668 : 26.458338 : 1"
       inkscape:persp3d-origin="42.333335 : 17.638892 : 1"
       id="perspective1691" />
  </defs>
  <sodipodi:namedview
     id="base"
     pagecolor="#ffffff"
     bordercolor="#666666"
     borderopacity="1.0"
     inkscape:pageopacity="0.0"
     inkscape:pageshadow="2"
     inkscape:zoom="0.55052083"
     inkscape:cx="59.680036"
     inkscape:cy="151.30446"
     inkscape:document-units="mm"
     inkscape:current-layer="layer1"
     showgrid="false"
     units="px"
     inkscape:window-width="1366"
     inkscape:window-height="719"
     inkscape:window-x="0"
     inkscape:window-y="20"
     inkscape:window-maximized="1"
     fit-margin-top="0"
     fit-margin-left="0"
     fit-margin-right="0"
     fit-margin-bottom="0"
     showguides="false" />
  <metadata
     id="metadata5">
    <rdf:RDF>
      <cc:Work
         rdf:about="">
        <dc:format>image/svg+xml</dc:format>
        <dc:type
           rdf:resource="http://purl.org/dc/dcmitype/StillImage" />
        <dc:title></dc:title>
      </cc:Work>
    </rdf:RDF>
  </metadata>
  <g
     inkscape:label="Layer 1"
     inkscape:groupmode="layer"
     id="layer1"
     transform="translate(0.013237,-182.85117)">
    <rect
       style="opacity:0.98999999;vector-effect:none;fill:#c085b5;fill-opacity:1;stroke:none;stroke-width:0.02645833;stroke-linecap:round;stroke-linejoin:bevel;stroke-miterlimit:4;stroke-dasharray:none;stroke-dashoffset:0;stroke-opacity:1;paint-order:markers fill stroke"
       id="rect1997"
       width="254.00002"
       height="79.375"
       x="-0.013237"
       y="182.85117" />
    <circle
       style="fill:#ffffff;stroke:#ff3a20;stroke-width:0.51699585;stroke-miterlimit:4;stroke-dasharray:none;stroke-opacity:1"
       id="path815"
       cx="11.641679"
       cy="193.07092"
       r="7.6790018" />
    <path
       style="fill:#ff3a20;fill-opacity:1;fill-rule:nonzero;stroke:none;stroke-width:7.24735928;stroke-miterlimit:4;stroke-dasharray:none"
       d="m 14.076029,193.24505 c 0.490468,2.95329 -1.014821,5.41517 -3.237488,6.04855 -2.7123788,0.77292 -2.8050467,-1.9213 -4.1457872,-4.59801 -1.2136201,-2.42294 0.091269,-5.70949 2.3696803,-6.09672 2.2784619,-0.38724 4.5231269,1.69291 5.0135949,4.64618 z"
       id="path817-5"
       inkscape:connector-curvature="0" />
    <path
       style="display:inline;fill:#ff3a20;fill-opacity:1;fill-rule:nonzero;stroke:none;stroke-width:7.24735928;stroke-miterlimit:4;stroke-dasharray:none"
       d="m 9.2073041,193.24861 c -0.4904678,2.95328 1.0148209,5.41516 3.2374879,6.04855 2.712379,0.77292 2.805047,-1.92131 4.145788,-4.59801 1.21362,-2.42294 -0.09127,-5.70949 -2.369681,-6.09673 -2.278462,-0.38724 -4.5231271,1.69292 -5.0135949,4.64619 z"
       id="path817-5-6"
       inkscape:connector-curvature="0" />
    <path
       style="fill:none;fill-rule:nonzero;stroke:#566e3d;stroke-width:0.38820505;stroke-linecap:round;stroke-linejoin:round;stroke-miterlimit:4;stroke-dasharray:none;stroke-opacity:1;paint-order:stroke fill markers"
       d="m 11.702781,189.42352 c -0.284432,-1.07669 0.661597,-2.19777 1.466676,-2.46652"
       id="path4597"
       inkscape:connector-curvature="0" />
    <g
       aria-label="Talleres de ciencias para niños Primera fase: Física"
       transform="matrix(0.25292209,0,0,0.25292209,43.318853,179.77465)"
       style="font-style:normal;font-variant:normal;font-weight:normal;font-stretch:normal;font-size:40.00036621px;line-height:1.25;font-family:sans-serif;-inkscape-font-specification:'sans-serif, Normal';font-variant-ligatures:normal;font-variant-caps:normal;font-variant-numeric:normal;font-feature-settings:normal;text-align:center;letter-spacing:0px;word-spacing:0px;writing-mode:lr-tb;text-anchor:middle;fill:#000000;fill-opacity:1;stroke:none;stroke-width:1.0461061"
       id="flowRoot2942">
      <path
         d="m 137.95526,34.230526 h 24.66819 v 3.320343 h -10.35166 v 25.84008 h -3.96488 v -25.84008 h -10.35165 z"
         style="font-style:normal;font-variant:normal;font-weight:normal;font-stretch:normal;font-size:40.00036621px;font-family:sans-serif;-inkscape-font-specification:'sans-serif, Normal';font-variant-ligatures:normal;font-variant-caps:normal;font-variant-numeric:normal;font-feature-settings:normal;text-align:center;writing-mode:lr-tb;text-anchor:middle;stroke-width:1.0461061"
         id="path2960"
         inkscape:connector-curvature="0" />
      <path
         d="m 169.59617,52.394755 q -4.35551,0 -6.03521,0.996102 -1.6797,0.996103 -1.6797,3.398469 0,1.91408 1.25001,3.046903 1.26954,1.113291 3.43753,1.113291 2.98831,0 4.7852,-2.109394 1.81642,-2.128926 1.81642,-5.644583 v -0.800788 z m 7.16804,-1.484389 v 12.480583 h -3.59379 v -3.320343 q -1.23048,1.992206 -3.06643,2.949246 -1.83595,0.937508 -4.49223,0.937508 -3.3594,0 -5.35161,-1.875017 -1.97267,-1.894548 -1.97267,-5.05864 0,-3.69144 2.46096,-5.566457 2.48049,-1.875017 7.38288,-1.875017 h 5.0391 v -0.351566 q 0,-2.480491 -1.64064,-3.82816 -1.6211,-1.3672 -4.57035,-1.3672 -1.87502,0 -3.65238,0.449223 -1.77736,0.449223 -3.418,1.347669 v -3.320343 q 1.97268,-0.761726 3.82816,-1.132823 1.85549,-0.390629 3.61332,-0.390629 4.74613,0 7.08991,2.46096 2.34377,2.46096 2.34377,7.461006 z"
         style="font-style:normal;font-variant:normal;font-weight:normal;font-stretch:normal;font-size:40.00036621px;font-family:sans-serif;-inkscape-font-specification:'sans-serif, Normal';font-variant-ligatures:normal;font-variant-caps:normal;font-variant-numeric:normal;font-feature-settings:normal;text-align:center;writing-mode:lr-tb;text-anchor:middle;stroke-width:1.0461061"
         id="path2962"
         inkscape:connector-curvature="0" />
      <path
         d="m 184.18615,33.000046 h 3.59378 v 30.390903 h -3.59378 z"
         style="font-style:normal;font-variant:normal;font-weight:normal;font-stretch:normal;font-size:40.00036621px;font-family:sans-serif;-inkscape-font-specification:'sans-serif, Normal';font-variant-ligatures:normal;font-variant-caps:normal;font-variant-numeric:normal;font-feature-settings:normal;text-align:center;writing-mode:lr-tb;text-anchor:middle;stroke-width:1.0461061"
         id="path2964"
         inkscape:connector-curvature="0" />
      <path
         d="m 195.28,33.000046 h 3.59378 V 63.390949 H 195.28 Z"
         style="font-style:normal;font-variant:normal;font-weight:normal;font-stretch:normal;font-size:40.00036621px;font-family:sans-serif;-inkscape-font-specification:'sans-serif, Normal';font-variant-ligatures:normal;font-variant-caps:normal;font-variant-numeric:normal;font-feature-settings:normal;text-align:center;writing-mode:lr-tb;text-anchor:middle;stroke-width:1.0461061"
         id="path2966"
         inkscape:connector-curvature="0" />
      <path
         d="m 225.08497,51.554903 v 1.757829 h -16.52359 q 0.23437,3.710971 2.22658,5.664114 2.01174,1.933612 5.58599,1.933612 2.07033,0 4.00394,-0.507818 1.95314,-0.507817 3.86722,-1.523451 v 3.398469 q -1.93361,0.82032 -3.96488,1.250011 -2.03126,0.429691 -4.12113,0.429691 -5.23442,0 -8.30085,-3.046902 -3.04691,-3.046903 -3.04691,-8.242263 0,-5.371143 2.89065,-8.515703 2.91019,-3.164092 7.83211,-3.164092 4.4141,0 6.97272,2.851589 2.57815,2.832057 2.57815,7.714914 z m -3.59379,-1.054697 q -0.0391,-2.949246 -1.66017,-4.707074 -1.60158,-1.757829 -4.25785,-1.757829 -3.00784,0 -4.82426,1.699234 -1.79689,1.699235 -2.07033,4.7852 z"
         style="font-style:normal;font-variant:normal;font-weight:normal;font-stretch:normal;font-size:40.00036621px;font-family:sans-serif;-inkscape-font-specification:'sans-serif, Normal';font-variant-ligatures:normal;font-variant-caps:normal;font-variant-numeric:normal;font-feature-settings:normal;text-align:center;writing-mode:lr-tb;text-anchor:middle;stroke-width:1.0461061"
         id="path2968"
         inkscape:connector-curvature="0" />
      <path
         d="m 243.65935,44.875154 q -0.60547,-0.351565 -1.32814,-0.507817 -0.70313,-0.175783 -1.56251,-0.175783 -3.0469,0 -4.68754,1.992206 -1.62111,1.972675 -1.62111,5.683646 v 11.523543 h -3.61332 v -21.8752 h 3.61332 v 3.398468 q 1.13282,-1.992205 2.94924,-2.949245 1.81643,-0.976572 4.41411,-0.976572 0.37109,0 0.82032,0.05859 0.44922,0.03906 0.9961,0.13672 z"
         style="font-style:normal;font-variant:normal;font-weight:normal;font-stretch:normal;font-size:40.00036621px;font-family:sans-serif;-inkscape-font-specification:'sans-serif, Normal';font-variant-ligatures:normal;font-variant-caps:normal;font-variant-numeric:normal;font-feature-settings:normal;text-align:center;writing-mode:lr-tb;text-anchor:middle;stroke-width:1.0461061"
         id="path2970"
         inkscape:connector-curvature="0" />
      <path
         d="m 265.31971,51.554903 v 1.757829 h -16.52359 q 0.23437,3.710971 2.22658,5.664114 2.01174,1.933612 5.58599,1.933612 2.07033,0 4.00394,-0.507818 1.95315,-0.507817 3.86723,-1.523451 v 3.398469 q -1.93362,0.82032 -3.96488,1.250011 -2.03127,0.429691 -4.12114,0.429691 -5.23442,0 -8.30085,-3.046902 -3.04691,-3.046903 -3.04691,-8.242263 0,-5.371143 2.89065,-8.515703 2.91019,-3.164092 7.83211,-3.164092 4.4141,0 6.97272,2.851589 2.57815,2.832057 2.57815,7.714914 z m -3.59379,-1.054697 q -0.0391,-2.949246 -1.66017,-4.707074 -1.60158,-1.757829 -4.25785,-1.757829 -3.00784,0 -4.82426,1.699234 -1.79689,1.699235 -2.07033,4.7852 z"
         style="font-style:normal;font-variant:normal;font-weight:normal;font-stretch:normal;font-size:40.00036621px;font-family:sans-serif;-inkscape-font-specification:'sans-serif, Normal';font-variant-ligatures:normal;font-variant-caps:normal;font-variant-numeric:normal;font-feature-settings:normal;text-align:center;writing-mode:lr-tb;text-anchor:middle;stroke-width:1.0461061"
         id="path2972"
         inkscape:connector-curvature="0" />
      <path
         d="m 285.16364,42.160286 v 3.398469 q -1.52345,-0.781258 -3.16409,-1.171886 -1.64064,-0.390629 -3.39847,-0.390629 -2.6758,0 -4.02347,0.82032 -1.32814,0.82032 -1.32814,2.46096 0,1.250012 0.95704,1.972675 0.95704,0.703131 3.84769,1.347668 l 1.23048,0.27344 q 3.82816,0.82032 5.42974,2.32424 1.62111,1.484389 1.62111,4.160195 0,3.046902 -2.4219,4.824262 -2.40237,1.77736 -6.62115,1.77736 -1.75783,0 -3.67191,-0.351565 -1.89455,-0.332035 -4.00395,-1.015635 v -3.710971 q 1.99221,1.035166 3.92582,1.562514 1.93361,0.507817 3.82816,0.507817 2.53909,0 3.90629,-0.859382 1.3672,-0.878915 1.3672,-2.46096 0,-1.464858 -0.99611,-2.246115 -0.97657,-0.781257 -4.31644,-1.50392 l -1.25001,-0.292971 q -3.33988,-0.703132 -4.82427,-2.148457 -1.48438,-1.464858 -1.48438,-4.003943 0,-3.085966 2.18752,-4.765669 2.18752,-1.679703 6.21099,-1.679703 1.99221,0 3.75003,0.292972 1.75783,0.292971 3.24222,0.878914 z"
         style="font-style:normal;font-variant:normal;font-weight:normal;font-stretch:normal;font-size:40.00036621px;font-family:sans-serif;-inkscape-font-specification:'sans-serif, Normal';font-variant-ligatures:normal;font-variant-caps:normal;font-variant-numeric:normal;font-feature-settings:normal;text-align:center;writing-mode:lr-tb;text-anchor:middle;stroke-width:1.0461061"
         id="path2974"
         inkscape:connector-curvature="0" />
      <path
         d="M 319.20692,44.836092 V 33.000046 h 3.59378 v 30.390903 h -3.59378 v -3.28128 q -1.13282,1.953143 -2.87112,2.910183 -1.71877,0.937508 -4.14066,0.937508 -3.96488,0 -6.46491,-3.164091 -2.48049,-3.164091 -2.48049,-8.320389 0,-5.156297 2.48049,-8.320388 2.50003,-3.164092 6.46491,-3.164092 2.42189,0 4.14066,0.95704 1.7383,0.937509 2.87112,2.890652 z m -12.24621,7.636788 q 0,3.96488 1.62111,6.230526 1.64064,2.246114 4.49223,2.246114 2.85159,0 4.49223,-2.246114 1.64064,-2.265646 1.64064,-6.230526 0,-3.96488 -1.64064,-6.210994 -1.64064,-2.265646 -4.49223,-2.265646 -2.85159,0 -4.49223,2.265646 -1.62111,2.246114 -1.62111,6.210994 z"
         style="font-style:normal;font-variant:normal;font-weight:normal;font-stretch:normal;font-size:40.00036621px;font-family:sans-serif;-inkscape-font-specification:'sans-serif, Normal';font-variant-ligatures:normal;font-variant-caps:normal;font-variant-numeric:normal;font-feature-settings:normal;text-align:center;writing-mode:lr-tb;text-anchor:middle;stroke-width:1.0461061"
         id="path2976"
         inkscape:connector-curvature="0" />
      <path
         d="m 348.91422,51.554903 v 1.757829 h -16.52359 q 0.23438,3.710971 2.22658,5.664114 2.01174,1.933612 5.58599,1.933612 2.07033,0 4.00395,-0.507818 1.95314,-0.507817 3.86722,-1.523451 v 3.398469 q -1.93361,0.82032 -3.96488,1.250011 -2.03127,0.429691 -4.12113,0.429691 -5.23443,0 -8.30086,-3.046902 -3.0469,-3.046903 -3.0469,-8.242263 0,-5.371143 2.89065,-8.515703 2.91018,-3.164092 7.8321,-3.164092 4.4141,0 6.97272,2.851589 2.57815,2.832057 2.57815,7.714914 z m -3.59378,-1.054697 q -0.0391,-2.949246 -1.66017,-4.707074 -1.60158,-1.757829 -4.25786,-1.757829 -3.00784,0 -4.82426,1.699234 -1.79689,1.699235 -2.07033,4.7852 z"
         style="font-style:normal;font-variant:normal;font-weight:normal;font-stretch:normal;font-size:40.00036621px;font-family:sans-serif;-inkscape-font-specification:'sans-serif, Normal';font-variant-ligatures:normal;font-variant-caps:normal;font-variant-numeric:normal;font-feature-settings:normal;text-align:center;writing-mode:lr-tb;text-anchor:middle;stroke-width:1.0461061"
         id="path2978"
         inkscape:connector-curvature="0" />
      <path
         d="m 383.28953,42.3556 v 3.359406 q -1.52345,-0.839852 -3.06644,-1.250012 -1.52345,-0.429691 -3.08596,-0.429691 -3.49613,0 -5.42974,2.226583 -1.93361,2.207051 -1.93361,6.210994 0,4.003943 1.93361,6.230526 1.93361,2.207052 5.42974,2.207052 1.56251,0 3.08596,-0.41016 1.54299,-0.429692 3.06644,-1.269543 v 3.320343 q -1.50392,0.703131 -3.12503,1.054697 -1.60158,0.351565 -3.418,0.351565 -4.94145,0 -7.85164,-3.105497 -2.91018,-3.105497 -2.91018,-8.378983 0,-5.351611 2.92972,-8.418046 2.94924,-3.066434 8.06648,-3.066434 1.66017,0 3.24221,0.351566 1.58205,0.332034 3.06644,1.015634 z"
         style="font-style:normal;font-variant:normal;font-weight:normal;font-stretch:normal;font-size:40.00036621px;font-family:sans-serif;-inkscape-font-specification:'sans-serif, Normal';font-variant-ligatures:normal;font-variant-caps:normal;font-variant-numeric:normal;font-feature-settings:normal;text-align:center;writing-mode:lr-tb;text-anchor:middle;stroke-width:1.0461061"
         id="path2980"
         inkscape:connector-curvature="0" />
      <path
         d="m 389.57866,41.515749 h 3.59378 v 21.8752 h -3.59378 z m 0,-8.515703 h 3.59378 v 4.550823 h -3.59378 z"
         style="font-style:normal;font-variant:normal;font-weight:normal;font-stretch:normal;font-size:40.00036621px;font-family:sans-serif;-inkscape-font-specification:'sans-serif, Normal';font-variant-ligatures:normal;font-variant-caps:normal;font-variant-numeric:normal;font-feature-settings:normal;text-align:center;writing-mode:lr-tb;text-anchor:middle;stroke-width:1.0461061"
         id="path2982"
         inkscape:connector-curvature="0" />
      <path
         d="m 419.38363,51.554903 v 1.757829 h -16.52359 q 0.23437,3.710971 2.22658,5.664114 2.01174,1.933612 5.58599,1.933612 2.07033,0 4.00394,-0.507818 1.95314,-0.507817 3.86722,-1.523451 v 3.398469 q -1.93361,0.82032 -3.96488,1.250011 -2.03126,0.429691 -4.12113,0.429691 -5.23442,0 -8.30085,-3.046902 -3.04691,-3.046903 -3.04691,-8.242263 0,-5.371143 2.89065,-8.515703 2.91019,-3.164092 7.83211,-3.164092 4.4141,0 6.97272,2.851589 2.57815,2.832057 2.57815,7.714914 z m -3.59379,-1.054697 q -0.0391,-2.949246 -1.66017,-4.707074 -1.60158,-1.757829 -4.25785,-1.757829 -3.00784,0 -4.82426,1.699234 -1.79689,1.699235 -2.07033,4.7852 z"
         style="font-style:normal;font-variant:normal;font-weight:normal;font-stretch:normal;font-size:40.00036621px;font-family:sans-serif;-inkscape-font-specification:'sans-serif, Normal';font-variant-ligatures:normal;font-variant-caps:normal;font-variant-numeric:normal;font-feature-settings:normal;text-align:center;writing-mode:lr-tb;text-anchor:middle;stroke-width:1.0461061"
         id="path2984"
         inkscape:connector-curvature="0" />
      <path
         d="m 443.46587,50.187703 v 13.203246 h -3.59379 V 50.304892 q 0,-3.105497 -1.21095,-4.64848 -1.21094,-1.542983 -3.63284,-1.542983 -2.91018,0 -4.58989,1.855486 -1.6797,1.855485 -1.6797,5.05864 v 12.363394 h -3.61331 v -21.8752 h 3.61331 v 3.398468 q 1.28907,-1.972674 3.02737,-2.949245 1.75783,-0.976572 4.04301,-0.976572 3.76956,0 5.70317,2.343772 1.93362,2.32424 1.93362,6.855531 z"
         style="font-style:normal;font-variant:normal;font-weight:normal;font-stretch:normal;font-size:40.00036621px;font-family:sans-serif;-inkscape-font-specification:'sans-serif, Normal';font-variant-ligatures:normal;font-variant-caps:normal;font-variant-numeric:normal;font-feature-settings:normal;text-align:center;writing-mode:lr-tb;text-anchor:middle;stroke-width:1.0461061"
         id="path2986"
         inkscape:connector-curvature="0" />
      <path
         d="m 466.41531,42.3556 v 3.359406 q -1.52346,-0.839852 -3.06644,-1.250012 -1.52345,-0.429691 -3.08596,-0.429691 -3.49613,0 -5.42974,2.226583 -1.93361,2.207051 -1.93361,6.210994 0,4.003943 1.93361,6.230526 1.93361,2.207052 5.42974,2.207052 1.56251,0 3.08596,-0.41016 1.54298,-0.429692 3.06644,-1.269543 v 3.320343 q -1.50392,0.703131 -3.12503,1.054697 -1.60158,0.351565 -3.418,0.351565 -4.94145,0 -7.85164,-3.105497 -2.91018,-3.105497 -2.91018,-8.378983 0,-5.351611 2.92971,-8.418046 2.94925,-3.066434 8.06648,-3.066434 1.66018,0 3.24222,0.351566 1.58205,0.332034 3.06644,1.015634 z"
         style="font-style:normal;font-variant:normal;font-weight:normal;font-stretch:normal;font-size:40.00036621px;font-family:sans-serif;-inkscape-font-specification:'sans-serif, Normal';font-variant-ligatures:normal;font-variant-caps:normal;font-variant-numeric:normal;font-feature-settings:normal;text-align:center;writing-mode:lr-tb;text-anchor:middle;stroke-width:1.0461061"
         id="path2988"
         inkscape:connector-curvature="0" />
      <path
         d="m 472.70441,41.515749 h 3.59378 v 21.8752 h -3.59378 z m 0,-8.515703 h 3.59378 v 4.550823 h -3.59378 z"
         style="font-style:normal;font-variant:normal;font-weight:normal;font-stretch:normal;font-size:40.00036621px;font-family:sans-serif;-inkscape-font-specification:'sans-serif, Normal';font-variant-ligatures:normal;font-variant-caps:normal;font-variant-numeric:normal;font-feature-settings:normal;text-align:center;writing-mode:lr-tb;text-anchor:middle;stroke-width:1.0461061"
         id="path2990"
         inkscape:connector-curvature="0" />
      <path
         d="m 493.73978,52.394755 q -4.35551,0 -6.03521,0.996102 -1.67971,0.996103 -1.67971,3.398469 0,1.91408 1.25001,3.046903 1.26955,1.113291 3.43754,1.113291 2.9883,0 4.7852,-2.109394 1.81642,-2.128926 1.81642,-5.644583 v -0.800788 z m 7.16803,-1.484389 v 12.480583 h -3.59378 v -3.320343 q -1.23048,1.992206 -3.06644,2.949246 -1.83595,0.937508 -4.49222,0.937508 -3.35941,0 -5.35162,-1.875017 -1.97267,-1.894548 -1.97267,-5.05864 0,-3.69144 2.46096,-5.566457 2.48049,-1.875017 7.38288,-1.875017 h 5.03911 v -0.351566 q 0,-2.480491 -1.64064,-3.82816 -1.62111,-1.3672 -4.57036,-1.3672 -1.87501,0 -3.65237,0.449223 -1.77736,0.449223 -3.418,1.347669 v -3.320343 q 1.97267,-0.761726 3.82816,-1.132823 1.85548,-0.390629 3.61331,-0.390629 4.74614,0 7.08991,2.46096 2.34377,2.46096 2.34377,7.461006 z"
         style="font-style:normal;font-variant:normal;font-weight:normal;font-stretch:normal;font-size:40.00036621px;font-family:sans-serif;-inkscape-font-specification:'sans-serif, Normal';font-variant-ligatures:normal;font-variant-caps:normal;font-variant-numeric:normal;font-feature-settings:normal;text-align:center;writing-mode:lr-tb;text-anchor:middle;stroke-width:1.0461061"
         id="path2992"
         inkscape:connector-curvature="0" />
      <path
         d="m 522.27518,42.160286 v 3.398469 q -1.52345,-0.781258 -3.16409,-1.171886 -1.64064,-0.390629 -3.39847,-0.390629 -2.6758,0 -4.02347,0.82032 -1.32814,0.82032 -1.32814,2.46096 0,1.250012 0.95704,1.972675 0.95704,0.703131 3.84769,1.347668 l 1.23048,0.27344 q 3.82816,0.82032 5.42974,2.32424 1.62111,1.484389 1.62111,4.160195 0,3.046902 -2.4219,4.824262 -2.40236,1.77736 -6.62115,1.77736 -1.75783,0 -3.67191,-0.351565 -1.89455,-0.332035 -4.00394,-1.015635 v -3.710971 q 1.9922,1.035166 3.92581,1.562514 1.93361,0.507817 3.82816,0.507817 2.53909,0 3.90629,-0.859382 1.3672,-0.878915 1.3672,-2.46096 0,-1.464858 -0.9961,-2.246115 -0.97658,-0.781257 -4.31645,-1.50392 l -1.25001,-0.292971 q -3.33988,-0.703132 -4.82426,-2.148457 -1.48439,-1.464858 -1.48439,-4.003943 0,-3.085966 2.18752,-4.765669 2.18752,-1.679703 6.21099,-1.679703 1.99221,0 3.75004,0.292972 1.75782,0.292971 3.24221,0.878914 z"
         style="font-style:normal;font-variant:normal;font-weight:normal;font-stretch:normal;font-size:40.00036621px;font-family:sans-serif;-inkscape-font-specification:'sans-serif, Normal';font-variant-ligatures:normal;font-variant-caps:normal;font-variant-numeric:normal;font-feature-settings:normal;text-align:center;writing-mode:lr-tb;text-anchor:middle;stroke-width:1.0461061"
         id="path2994"
         inkscape:connector-curvature="0" />
      <path
         d="m 233.5616,110.11013 v 11.60167 h -3.61331 V 91.516207 h 3.61331 v 3.320342 q 1.13282,-1.953142 2.85159,-2.890651 1.7383,-0.95704 4.14066,-0.95704 3.98441,0 6.46491,3.164091 2.50002,3.164092 2.50002,8.320391 0,5.1563 -2.50002,8.32039 -2.4805,3.16409 -6.46491,3.16409 -2.40236,0 -4.14066,-0.93751 -1.71877,-0.95704 -2.85159,-2.91018 z m 12.22668,-7.63679 q 0,-3.964882 -1.64064,-6.210996 -1.62111,-2.265646 -4.4727,-2.265646 -2.85159,0 -4.49223,2.265646 -1.62111,2.246114 -1.62111,6.210996 0,3.96488 1.62111,6.23052 1.64064,2.24612 4.49223,2.24612 2.85159,0 4.4727,-2.24612 1.64064,-2.26564 1.64064,-6.23052 z"
         style="font-style:normal;font-variant:normal;font-weight:normal;font-stretch:normal;font-size:40.00036621px;font-family:sans-serif;-inkscape-font-specification:'sans-serif, Normal';font-variant-ligatures:normal;font-variant-caps:normal;font-variant-numeric:normal;font-feature-settings:normal;text-align:center;writing-mode:lr-tb;text-anchor:middle;stroke-width:1.0461061"
         id="path2996"
         inkscape:connector-curvature="0" />
      <path
         d="m 265.41736,102.39521 q -4.35551,0 -6.03521,0.99611 -1.6797,0.9961 -1.6797,3.39846 0,1.91408 1.25001,3.04691 1.26954,1.11329 3.43753,1.11329 2.98831,0 4.7852,-2.1094 1.81642,-2.12892 1.81642,-5.64458 v -0.80079 z m 7.16804,-1.48439 v 12.48059 h -3.59379 v -3.32035 q -1.23048,1.99221 -3.06643,2.94925 -1.83596,0.93751 -4.49223,0.93751 -3.35941,0 -5.35161,-1.87502 -1.97268,-1.89455 -1.97268,-5.05864 0,-3.69144 2.46096,-5.56646 2.4805,-1.875013 7.38288,-1.875013 h 5.03911 v -0.351566 q 0,-2.480492 -1.64064,-3.82816 -1.62111,-1.3672 -4.57035,-1.3672 -1.87502,0 -3.65238,0.449223 -1.77736,0.449223 -3.418,1.347668 v -3.320343 q 1.97268,-0.761725 3.82816,-1.132822 1.85549,-0.390629 3.61332,-0.390629 4.74613,0 7.0899,2.46096 2.34378,2.46096 2.34378,7.461002 z"
         style="font-style:normal;font-variant:normal;font-weight:normal;font-stretch:normal;font-size:40.00036621px;font-family:sans-serif;-inkscape-font-specification:'sans-serif, Normal';font-variant-ligatures:normal;font-variant-caps:normal;font-variant-numeric:normal;font-feature-settings:normal;text-align:center;writing-mode:lr-tb;text-anchor:middle;stroke-width:1.0461061"
         id="path2998"
         inkscape:connector-curvature="0" />
      <path
         d="m 292.68324,94.875612 q -0.60548,-0.351565 -1.32814,-0.507817 -0.70313,-0.175783 -1.56251,-0.175783 -3.04691,0 -4.68755,1.992206 -1.62111,1.972674 -1.62111,5.683642 v 11.52355 h -3.61331 V 91.516207 h 3.61331 v 3.398468 q 1.13283,-1.992206 2.94925,-2.949246 1.81642,-0.976571 4.4141,-0.976571 0.3711,0 0.82032,0.05859 0.44923,0.03906 0.99611,0.13672 z"
         style="font-style:normal;font-variant:normal;font-weight:normal;font-stretch:normal;font-size:40.00036621px;font-family:sans-serif;-inkscape-font-specification:'sans-serif, Normal';font-variant-ligatures:normal;font-variant-caps:normal;font-variant-numeric:normal;font-feature-settings:normal;text-align:center;writing-mode:lr-tb;text-anchor:middle;stroke-width:1.0461061"
         id="path3000"
         inkscape:connector-curvature="0" />
      <path
         d="m 306.43336,102.39521 q -4.3555,0 -6.03521,0.99611 -1.6797,0.9961 -1.6797,3.39846 0,1.91408 1.25001,3.04691 1.26954,1.11329 3.43753,1.11329 2.98831,0 4.7852,-2.1094 1.81643,-2.12892 1.81643,-5.64458 v -0.80079 z m 7.16804,-1.48439 v 12.48059 h -3.59378 v -3.32035 q -1.23048,1.99221 -3.06644,2.94925 -1.83595,0.93751 -4.49223,0.93751 -3.3594,0 -5.35161,-1.87502 -1.97267,-1.89455 -1.97267,-5.05864 0,-3.69144 2.46096,-5.56646 2.48049,-1.875013 7.38288,-1.875013 h 5.03911 v -0.351566 q 0,-2.480492 -1.64064,-3.82816 -1.62111,-1.3672 -4.57036,-1.3672 -1.87502,0 -3.65238,0.449223 -1.77736,0.449223 -3.418,1.347668 v -3.320343 q 1.97268,-0.761725 3.82816,-1.132822 1.85549,-0.390629 3.61332,-0.390629 4.74614,0 7.08991,2.46096 2.34377,2.46096 2.34377,7.461002 z"
         style="font-style:normal;font-variant:normal;font-weight:normal;font-stretch:normal;font-size:40.00036621px;font-family:sans-serif;-inkscape-font-specification:'sans-serif, Normal';font-variant-ligatures:normal;font-variant-caps:normal;font-variant-numeric:normal;font-feature-settings:normal;text-align:center;writing-mode:lr-tb;text-anchor:middle;stroke-width:1.0461061"
         id="path3002"
         inkscape:connector-curvature="0" />
      <path
         d="m 351.94159,100.18816 v 13.20325 h -3.59378 v -13.08606 q 0,-3.105498 -1.21095,-4.648481 -1.21095,-1.542982 -3.63285,-1.542982 -2.91018,0 -4.58988,1.855485 -1.67971,1.855486 -1.67971,5.058638 v 12.3634 h -3.61331 V 91.516207 h 3.61331 v 3.398468 q 1.28908,-1.972674 3.02737,-2.949246 1.75783,-0.976571 4.04301,-0.976571 3.76957,0 5.70318,2.343771 1.93361,2.32424 1.93361,6.855531 z"
         style="font-style:normal;font-variant:normal;font-weight:normal;font-stretch:normal;font-size:40.00036621px;font-family:sans-serif;-inkscape-font-specification:'sans-serif, Normal';font-variant-ligatures:normal;font-variant-caps:normal;font-variant-numeric:normal;font-feature-settings:normal;text-align:center;writing-mode:lr-tb;text-anchor:middle;stroke-width:1.0461061"
         id="path3004"
         inkscape:connector-curvature="0" />
      <path
         d="m 359.1487,91.516207 h 3.59378 v 21.875203 h -3.59378 z m 0,-8.515703 h 3.59378 v 4.550822 h -3.59378 z"
         style="font-style:normal;font-variant:normal;font-weight:normal;font-stretch:normal;font-size:40.00036621px;font-family:sans-serif;-inkscape-font-specification:'sans-serif, Normal';font-variant-ligatures:normal;font-variant-caps:normal;font-variant-numeric:normal;font-feature-settings:normal;text-align:center;writing-mode:lr-tb;text-anchor:middle;stroke-width:1.0461061"
         id="path3006"
         inkscape:connector-curvature="0" />
      <path
         d="m 388.4263,100.18816 v 13.20325 h -3.59378 v -13.08606 q 0,-3.105498 -1.21095,-4.648481 -1.21095,-1.542982 -3.63285,-1.542982 -2.91018,0 -4.58988,1.855485 -1.67971,1.855486 -1.67971,5.058638 v 12.3634 h -3.61331 V 91.516207 h 3.61331 v 3.398468 q 1.28908,-1.972674 3.02737,-2.949246 1.75783,-0.976571 4.04301,-0.976571 3.76957,0 5.70318,2.343771 1.93361,2.32424 1.93361,6.855531 z m -9.06258,-13.554811 -1.1133,-1.074228 q -0.42969,-0.390629 -0.76172,-0.566412 -0.3125,-0.195314 -0.56641,-0.195314 -0.7422,0 -1.09376,0.722663 -0.35157,0.703131 -0.39063,2.304708 h -2.44143 q 0.0391,-2.636742 1.03517,-4.062537 0.9961,-1.445325 2.77346,-1.445325 0.74219,0 1.3672,0.27344 0.625,0.27344 1.34767,0.917977 l 1.11329,1.074228 q 0.42969,0.390629 0.74219,0.585943 0.33204,0.175783 0.58595,0.175783 0.74219,0 1.09376,-0.703131 0.35156,-0.722663 0.39062,-2.32424 h 2.44143 q -0.0391,2.636742 -1.03516,4.082068 -0.99611,1.425794 -2.77347,1.425794 -0.74219,0 -1.3672,-0.27344 -0.625,-0.27344 -1.34766,-0.917977 z"
         style="font-style:normal;font-variant:normal;font-weight:normal;font-stretch:normal;font-size:40.00036621px;font-family:sans-serif;-inkscape-font-specification:'sans-serif, Normal';font-variant-ligatures:normal;font-variant-caps:normal;font-variant-numeric:normal;font-feature-settings:normal;text-align:center;writing-mode:lr-tb;text-anchor:middle;stroke-width:1.0461061"
         id="path3008"
         inkscape:connector-curvature="0" />
      <path
         d="m 404.11003,94.035761 q -2.89065,0 -4.57035,2.265646 -1.6797,2.246114 -1.6797,6.171933 0,3.92582 1.66017,6.19146 1.6797,2.24612 4.58988,2.24612 2.87112,0 4.55083,-2.26565 1.6797,-2.26565 1.6797,-6.17193 0,-3.886756 -1.6797,-6.152402 -1.67971,-2.285177 -4.55083,-2.285177 z m 0,-3.046903 q 4.68755,0 7.36335,3.046903 2.67581,3.046903 2.67581,8.437579 0,5.37114 -2.67581,8.43758 -2.6758,3.0469 -7.36335,3.0469 -4.70707,0 -7.38288,-3.0469 -2.65627,-3.06644 -2.65627,-8.43758 0,-5.390676 2.65627,-8.437579 2.67581,-3.046903 7.38288,-3.046903 z"
         style="font-style:normal;font-variant:normal;font-weight:normal;font-stretch:normal;font-size:40.00036621px;font-family:sans-serif;-inkscape-font-specification:'sans-serif, Normal';font-variant-ligatures:normal;font-variant-caps:normal;font-variant-numeric:normal;font-feature-settings:normal;text-align:center;writing-mode:lr-tb;text-anchor:middle;stroke-width:1.0461061"
         id="path3010"
         inkscape:connector-curvature="0" />
      <path
         d="m 434.03219,92.160744 v 3.398468 q -1.52345,-0.781257 -3.1641,-1.171885 -1.64064,-0.390629 -3.39846,-0.390629 -2.67581,0 -4.02348,0.82032 -1.32814,0.82032 -1.32814,2.46096 0,1.250011 0.95704,1.972674 0.95704,0.703132 3.8477,1.347668 l 1.23048,0.27344 q 3.82816,0.82032 5.42973,2.32424 1.62111,1.48439 1.62111,4.1602 0,3.0469 -2.42189,4.82426 -2.40237,1.77736 -6.62116,1.77736 -1.75783,0 -3.67191,-0.35157 -1.89455,-0.33203 -4.00394,-1.01563 v -3.71097 q 1.9922,1.03516 3.92582,1.56251 1.93361,0.50782 3.82816,0.50782 2.53908,0 3.90628,-0.85938 1.3672,-0.87892 1.3672,-2.46096 0,-1.46486 -0.9961,-2.24612 -0.97657,-0.78126 -4.31645,-1.50392 l -1.25001,-0.29297 q -3.33987,-0.70313 -4.82426,-2.14846 -1.48439,-1.464855 -1.48439,-4.003941 0,-3.085965 2.18752,-4.765668 2.18752,-1.679703 6.21099,-1.679703 1.99221,0 3.75004,0.292971 1.75783,0.292972 3.24222,0.878915 z"
         style="font-style:normal;font-variant:normal;font-weight:normal;font-stretch:normal;font-size:40.00036621px;font-family:sans-serif;-inkscape-font-specification:'sans-serif, Normal';font-variant-ligatures:normal;font-variant-caps:normal;font-variant-numeric:normal;font-feature-settings:normal;text-align:center;writing-mode:lr-tb;text-anchor:middle;stroke-width:1.0461061"
         id="path3012"
         inkscape:connector-curvature="0" />
      <path
         d="m 143.95141,137.47366 v 10.95713 h 4.96098 q 2.75393,0 4.25785,-1.42579 1.50392,-1.4258 1.50392,-4.06254 0,-2.61721 -1.50392,-4.04301 -1.50392,-1.42579 -4.25785,-1.42579 z m -3.94535,-3.24222 h 8.90633 q 4.90239,0 7.40241,2.22658 2.51955,2.20706 2.51955,6.48444 0,4.31644 -2.51955,6.5235 -2.50002,2.20705 -7.40241,2.20705 h -4.96098 v 11.71885 h -3.94535 z"
         style="font-style:normal;font-variant:normal;font-weight:normal;font-stretch:normal;font-size:40.00036621px;font-family:sans-serif;-inkscape-font-specification:'sans-serif, Normal';font-variant-ligatures:normal;font-variant-caps:normal;font-variant-numeric:normal;font-feature-settings:normal;text-align:center;writing-mode:lr-tb;text-anchor:middle;stroke-width:1.0461061"
         id="path3014"
         inkscape:connector-curvature="0" />
      <path
         d="m 175.96342,144.87607 q -0.60548,-0.35157 -1.32814,-0.50782 -0.70313,-0.17578 -1.56251,-0.17578 -3.04691,0 -4.68755,1.99221 -1.62111,1.97267 -1.62111,5.68364 v 11.52354 h -3.61331 v -21.8752 h 3.61331 v 3.39847 q 1.13283,-1.9922 2.94925,-2.94924 1.81642,-0.97657 4.4141,-0.97657 0.3711,0 0.82032,0.0586 0.44923,0.0391 0.99611,0.13672 z"
         style="font-style:normal;font-variant:normal;font-weight:normal;font-stretch:normal;font-size:40.00036621px;font-family:sans-serif;-inkscape-font-specification:'sans-serif, Normal';font-variant-ligatures:normal;font-variant-caps:normal;font-variant-numeric:normal;font-feature-settings:normal;text-align:center;writing-mode:lr-tb;text-anchor:middle;stroke-width:1.0461061"
         id="path3016"
         inkscape:connector-curvature="0" />
      <path
         d="m 179.77205,141.51666 h 3.59378 v 21.8752 h -3.59378 z m 0,-8.5157 h 3.59378 v 4.55082 h -3.59378 z"
         style="font-style:normal;font-variant:normal;font-weight:normal;font-stretch:normal;font-size:40.00036621px;font-family:sans-serif;-inkscape-font-specification:'sans-serif, Normal';font-variant-ligatures:normal;font-variant-caps:normal;font-variant-numeric:normal;font-feature-settings:normal;text-align:center;writing-mode:lr-tb;text-anchor:middle;stroke-width:1.0461061"
         id="path3018"
         inkscape:connector-curvature="0" />
      <path
         d="m 207.8973,145.71592 q 1.34767,-2.4219 3.22269,-3.57425 1.87501,-1.15235 4.4141,-1.15235 3.418,0 5.27349,2.40236 1.85548,2.38284 1.85548,6.79694 v 13.20324 h -3.61331 v -13.08605 q 0,-3.14456 -1.11329,-4.66801 -1.1133,-1.52346 -3.39847,-1.52346 -2.793,0 -4.41411,1.85549 -1.6211,1.85549 -1.6211,5.05864 v 12.36339 h -3.61332 v -13.08605 q 0,-3.16409 -1.11329,-4.66801 -1.11329,-1.52346 -3.43753,-1.52346 -2.75393,0 -4.37504,1.87502 -1.62111,1.85549 -1.62111,5.03911 v 12.36339 h -3.61331 v -21.8752 h 3.61331 v 3.39847 q 1.23048,-2.01173 2.94925,-2.96877 1.71876,-0.95704 4.08206,-0.95704 2.38284,0 4.04301,1.21094 1.6797,1.21095 2.48049,3.51566 z"
         style="font-style:normal;font-variant:normal;font-weight:normal;font-stretch:normal;font-size:40.00036621px;font-family:sans-serif;-inkscape-font-specification:'sans-serif, Normal';font-variant-ligatures:normal;font-variant-caps:normal;font-variant-numeric:normal;font-feature-settings:normal;text-align:center;writing-mode:lr-tb;text-anchor:middle;stroke-width:1.0461061"
         id="path3020"
         inkscape:connector-curvature="0" />
      <path
         d="m 248.56174,151.55582 v 1.75783 h -16.52359 q 0.23438,3.71097 2.22658,5.66411 2.01174,1.93361 5.58599,1.93361 2.07033,0 4.00394,-0.50781 1.95315,-0.50782 3.86723,-1.52346 v 3.39847 q -1.93361,0.82032 -3.96488,1.25001 -2.03127,0.4297 -4.12113,0.4297 -5.23443,0 -8.30086,-3.04691 -3.0469,-3.0469 -3.0469,-8.24226 0,-5.37114 2.89065,-8.5157 2.91018,-3.16409 7.8321,-3.16409 4.4141,0 6.97272,2.85158 2.57815,2.83206 2.57815,7.71492 z m -3.59378,-1.0547 q -0.0391,-2.94924 -1.66018,-4.70707 -1.60157,-1.75783 -4.25785,-1.75783 -3.00784,0 -4.82426,1.69923 -1.79689,1.69924 -2.07033,4.7852 z"
         style="font-style:normal;font-variant:normal;font-weight:normal;font-stretch:normal;font-size:40.00036621px;font-family:sans-serif;-inkscape-font-specification:'sans-serif, Normal';font-variant-ligatures:normal;font-variant-caps:normal;font-variant-numeric:normal;font-feature-settings:normal;text-align:center;writing-mode:lr-tb;text-anchor:middle;stroke-width:1.0461061"
         id="path3022"
         inkscape:connector-curvature="0" />
      <path
         d="m 267.13613,144.87607 q -0.60547,-0.35157 -1.32814,-0.50782 -0.70313,-0.17578 -1.56251,-0.17578 -3.0469,0 -4.68754,1.99221 -1.62111,1.97267 -1.62111,5.68364 v 11.52354 h -3.61332 v -21.8752 h 3.61332 v 3.39847 q 1.13282,-1.9922 2.94924,-2.94924 1.81643,-0.97657 4.41411,-0.97657 0.37109,0 0.82032,0.0586 0.44922,0.0391 0.9961,0.13672 z"
         style="font-style:normal;font-variant:normal;font-weight:normal;font-stretch:normal;font-size:40.00036621px;font-family:sans-serif;-inkscape-font-specification:'sans-serif, Normal';font-variant-ligatures:normal;font-variant-caps:normal;font-variant-numeric:normal;font-feature-settings:normal;text-align:center;writing-mode:lr-tb;text-anchor:middle;stroke-width:1.0461061"
         id="path3024"
         inkscape:connector-curvature="0" />
      <path
         d="m 280.88626,152.39567 q -4.35551,0 -6.03521,0.9961 -1.67971,0.99611 -1.67971,3.39847 0,1.91408 1.25002,3.0469 1.26954,1.1133 3.43753,1.1133 2.98831,0 4.7852,-2.1094 1.81642,-2.12892 1.81642,-5.64458 v -0.80079 z m 7.16803,-1.48439 v 12.48058 h -3.59378 v -3.32034 q -1.23048,1.99221 -3.06643,2.94925 -1.83596,0.93751 -4.49223,0.93751 -3.35941,0 -5.35161,-1.87502 -1.97268,-1.89455 -1.97268,-5.05864 0,-3.69144 2.46096,-5.56646 2.48049,-1.87502 7.38288,-1.87502 h 5.03911 v -0.35156 q 0,-2.48049 -1.64064,-3.82816 -1.62111,-1.3672 -4.57035,-1.3672 -1.87502,0 -3.65238,0.44922 -1.77736,0.44922 -3.418,1.34767 v -3.32034 q 1.97267,-0.76173 3.82816,-1.13283 1.85548,-0.39062 3.61331,-0.39062 4.74614,0 7.08991,2.46096 2.34377,2.46096 2.34377,7.461 z"
         style="font-style:normal;font-variant:normal;font-weight:normal;font-stretch:normal;font-size:40.00036621px;font-family:sans-serif;-inkscape-font-specification:'sans-serif, Normal';font-variant-ligatures:normal;font-variant-caps:normal;font-variant-numeric:normal;font-feature-settings:normal;text-align:center;writing-mode:lr-tb;text-anchor:middle;stroke-width:1.0461061"
         id="path3026"
         inkscape:connector-curvature="0" />
      <path
         d="m 319.28504,133.00096 v 2.98831 h -3.43753 q -1.93361,0 -2.69534,0.78126 -0.74219,0.78125 -0.74219,2.81252 v 1.93361 h 5.91802 v 2.793 h -5.91802 v 19.0822 h -3.61332 v -19.0822 h -3.43753 v -2.793 h 3.43753 v -1.52345 q 0,-3.65237 1.69924,-5.31255 1.69923,-1.6797 5.39067,-1.6797 z"
         style="font-style:normal;font-variant:normal;font-weight:normal;font-stretch:normal;font-size:40.00036621px;font-family:sans-serif;-inkscape-font-specification:'sans-serif, Normal';font-variant-ligatures:normal;font-variant-caps:normal;font-variant-numeric:normal;font-feature-settings:normal;text-align:center;writing-mode:lr-tb;text-anchor:middle;stroke-width:1.0461061"
         id="path3028"
         inkscape:connector-curvature="0" />
      <path
         d="m 332.21484,152.39567 q -4.35551,0 -6.03521,0.9961 -1.6797,0.99611 -1.6797,3.39847 0,1.91408 1.25001,3.0469 1.26954,1.1133 3.43753,1.1133 2.98831,0 4.7852,-2.1094 1.81642,-2.12892 1.81642,-5.64458 v -0.80079 z m 7.16804,-1.48439 v 12.48058 h -3.59379 v -3.32034 q -1.23048,1.99221 -3.06643,2.94925 -1.83596,0.93751 -4.49223,0.93751 -3.35941,0 -5.35161,-1.87502 -1.97268,-1.89455 -1.97268,-5.05864 0,-3.69144 2.46096,-5.56646 2.4805,-1.87502 7.38288,-1.87502 h 5.03911 v -0.35156 q 0,-2.48049 -1.64064,-3.82816 -1.62111,-1.3672 -4.57035,-1.3672 -1.87502,0 -3.65238,0.44922 -1.77736,0.44922 -3.418,1.34767 v -3.32034 q 1.97268,-0.76173 3.82816,-1.13283 1.85549,-0.39062 3.61332,-0.39062 4.74613,0 7.0899,2.46096 2.34378,2.46096 2.34378,7.461 z"
         style="font-style:normal;font-variant:normal;font-weight:normal;font-stretch:normal;font-size:40.00036621px;font-family:sans-serif;-inkscape-font-specification:'sans-serif, Normal';font-variant-ligatures:normal;font-variant-caps:normal;font-variant-numeric:normal;font-feature-settings:normal;text-align:center;writing-mode:lr-tb;text-anchor:middle;stroke-width:1.0461061"
         id="path3030"
         inkscape:connector-curvature="0" />
      <path
         d="m 360.75026,142.1612 v 3.39847 q -1.52345,-0.78126 -3.16409,-1.17189 -1.64064,-0.39062 -3.39847,-0.39062 -2.6758,0 -4.02347,0.82032 -1.32814,0.82032 -1.32814,2.46096 0,1.25001 0.95704,1.97267 0.95704,0.70313 3.84769,1.34767 l 1.23048,0.27344 q 3.82816,0.82032 5.42974,2.32424 1.62111,1.48439 1.62111,4.16019 0,3.04691 -2.4219,4.82427 -2.40236,1.77736 -6.62115,1.77736 -1.75783,0 -3.67191,-0.35157 -1.89455,-0.33203 -4.00394,-1.01563 v -3.71098 q 1.9922,1.03517 3.92581,1.56252 1.93361,0.50782 3.82816,0.50782 2.53909,0 3.90629,-0.85939 1.3672,-0.87891 1.3672,-2.46096 0,-1.46485 -0.9961,-2.24611 -0.97658,-0.78126 -4.31645,-1.50392 l -1.25001,-0.29297 q -3.33988,-0.70313 -4.82426,-2.14846 -1.48439,-1.46486 -1.48439,-4.00394 0,-3.08597 2.18752,-4.76567 2.18752,-1.6797 6.21099,-1.6797 1.99221,0 3.75004,0.29297 1.75782,0.29297 3.24221,0.87891 z"
         style="font-style:normal;font-variant:normal;font-weight:normal;font-stretch:normal;font-size:40.00036621px;font-family:sans-serif;-inkscape-font-specification:'sans-serif, Normal';font-variant-ligatures:normal;font-variant-caps:normal;font-variant-numeric:normal;font-feature-settings:normal;text-align:center;writing-mode:lr-tb;text-anchor:middle;stroke-width:1.0461061"
         id="path3032"
         inkscape:connector-curvature="0" />
      <path
         d="m 386.3755,151.55582 v 1.75783 h -16.52358 q 0.23437,3.71097 2.22658,5.66411 2.01174,1.93361 5.58599,1.93361 2.07033,0 4.00394,-0.50781 1.95314,-0.50782 3.86722,-1.52346 v 3.39847 q -1.93361,0.82032 -3.96488,1.25001 -2.03127,0.4297 -4.12113,0.4297 -5.23442,0 -8.30086,-3.04691 -3.0469,-3.0469 -3.0469,-8.24226 0,-5.37114 2.89065,-8.5157 2.91019,-3.16409 7.83211,-3.16409 4.4141,0 6.97272,2.85158 2.57814,2.83206 2.57814,7.71492 z m -3.59378,-1.0547 q -0.0391,-2.94924 -1.66017,-4.70707 -1.60158,-1.75783 -4.25785,-1.75783 -3.00784,0 -4.82426,1.69923 -1.7969,1.69924 -2.07034,4.7852 z"
         style="font-style:normal;font-variant:normal;font-weight:normal;font-stretch:normal;font-size:40.00036621px;font-family:sans-serif;-inkscape-font-specification:'sans-serif, Normal';font-variant-ligatures:normal;font-variant-caps:normal;font-variant-numeric:normal;font-feature-settings:normal;text-align:center;writing-mode:lr-tb;text-anchor:middle;stroke-width:1.0461061"
         id="path3034"
         inkscape:connector-curvature="0" />
      <path
         d="m 393.19196,158.43088 h 4.12113 v 4.96098 h -4.12113 z m 0,-15.7228 h 4.12113 v 4.96098 h -4.12113 z"
         style="font-style:normal;font-variant:normal;font-weight:normal;font-stretch:normal;font-size:40.00036621px;font-family:sans-serif;-inkscape-font-specification:'sans-serif, Normal';font-variant-ligatures:normal;font-variant-caps:normal;font-variant-numeric:normal;font-feature-settings:normal;text-align:center;writing-mode:lr-tb;text-anchor:middle;stroke-width:1.0461061"
         id="path3036"
         inkscape:connector-curvature="0" />
      <path
         d="m 418.6805,134.23144 h 16.75796 v 3.32034 h -12.81262 v 8.59383 h 11.56261 v 3.32035 h -11.56261 v 13.9259 h -3.94534 z"
         style="font-style:normal;font-variant:normal;font-weight:normal;font-stretch:normal;font-size:40.00036621px;font-family:sans-serif;-inkscape-font-specification:'sans-serif, Normal';font-variant-ligatures:normal;font-variant-caps:normal;font-variant-numeric:normal;font-feature-settings:normal;text-align:center;writing-mode:lr-tb;text-anchor:middle;stroke-width:1.0461061"
         id="path3038"
         inkscape:connector-curvature="0" />
      <path
         d="m 446.08309,131.39938 h 3.88676 l -6.36725,7.34382 h -2.98831 z m -4.51176,10.11728 h 3.59379 v 21.8752 h -3.59379 z m 1.79689,-0.52734 z"
         style="font-style:normal;font-variant:normal;font-weight:normal;font-stretch:normal;font-size:40.00036621px;font-family:sans-serif;-inkscape-font-specification:'sans-serif, Normal';font-variant-ligatures:normal;font-variant-caps:normal;font-variant-numeric:normal;font-feature-settings:normal;text-align:center;writing-mode:lr-tb;text-anchor:middle;stroke-width:1.0461061"
         id="path3040"
         inkscape:connector-curvature="0" />
      <path
         d="m 466.61061,142.1612 v 3.39847 q -1.52345,-0.78126 -3.16409,-1.17189 -1.64064,-0.39062 -3.39847,-0.39062 -2.6758,0 -4.02347,0.82032 -1.32814,0.82032 -1.32814,2.46096 0,1.25001 0.95704,1.97267 0.95704,0.70313 3.84769,1.34767 l 1.23048,0.27344 q 3.82816,0.82032 5.42974,2.32424 1.62111,1.48439 1.62111,4.16019 0,3.04691 -2.4219,4.82427 -2.40236,1.77736 -6.62115,1.77736 -1.75783,0 -3.67191,-0.35157 -1.89455,-0.33203 -4.00394,-1.01563 v -3.71098 q 1.9922,1.03517 3.92581,1.56252 1.93362,0.50782 3.82816,0.50782 2.53909,0 3.90629,-0.85939 1.3672,-0.87891 1.3672,-2.46096 0,-1.46485 -0.9961,-2.24611 -0.97657,-0.78126 -4.31645,-1.50392 l -1.25001,-0.29297 q -3.33987,-0.70313 -4.82426,-2.14846 -1.48439,-1.46486 -1.48439,-4.00394 0,-3.08597 2.18752,-4.76567 2.18752,-1.6797 6.21099,-1.6797 1.99221,0 3.75004,0.29297 1.75783,0.29297 3.24221,0.87891 z"
         style="font-style:normal;font-variant:normal;font-weight:normal;font-stretch:normal;font-size:40.00036621px;font-family:sans-serif;-inkscape-font-specification:'sans-serif, Normal';font-variant-ligatures:normal;font-variant-caps:normal;font-variant-numeric:normal;font-feature-settings:normal;text-align:center;writing-mode:lr-tb;text-anchor:middle;stroke-width:1.0461061"
         id="path3042"
         inkscape:connector-curvature="0" />
      <path
         d="m 473.52473,141.51666 h 3.59379 v 21.8752 h -3.59379 z m 0,-8.5157 h 3.59379 v 4.55082 h -3.59379 z"
         style="font-style:normal;font-variant:normal;font-weight:normal;font-stretch:normal;font-size:40.00036621px;font-family:sans-serif;-inkscape-font-specification:'sans-serif, Normal';font-variant-ligatures:normal;font-variant-caps:normal;font-variant-numeric:normal;font-feature-settings:normal;text-align:center;writing-mode:lr-tb;text-anchor:middle;stroke-width:1.0461061"
         id="path3044"
         inkscape:connector-curvature="0" />
      <path
         d="m 500.36091,142.35652 v 3.3594 q -1.52346,-0.83985 -3.06644,-1.25001 -1.52345,-0.42969 -3.08596,-0.42969 -3.49613,0 -5.42974,2.22658 -1.93361,2.20705 -1.93361,6.211 0,4.00394 1.93361,6.23052 1.93361,2.20705 5.42974,2.20705 1.56251,0 3.08596,-0.41016 1.54298,-0.42969 3.06644,-1.26954 v 3.32034 q -1.50392,0.70313 -3.12503,1.0547 -1.60158,0.35157 -3.418,0.35157 -4.94145,0 -7.85164,-3.1055 -2.91018,-3.1055 -2.91018,-8.37898 0,-5.35162 2.92971,-8.41805 2.94925,-3.06643 8.06648,-3.06643 1.66018,0 3.24222,0.35156 1.58205,0.33204 3.06644,1.01564 z"
         style="font-style:normal;font-variant:normal;font-weight:normal;font-stretch:normal;font-size:40.00036621px;font-family:sans-serif;-inkscape-font-specification:'sans-serif, Normal';font-variant-ligatures:normal;font-variant-caps:normal;font-variant-numeric:normal;font-feature-settings:normal;text-align:center;writing-mode:lr-tb;text-anchor:middle;stroke-width:1.0461061"
         id="path3046"
         inkscape:connector-curvature="0" />
      <path
         d="m 516.59153,152.39567 q -4.3555,0 -6.03521,0.9961 -1.6797,0.99611 -1.6797,3.39847 0,1.91408 1.25001,3.0469 1.26954,1.1133 3.43753,1.1133 2.98831,0 4.7852,-2.1094 1.81643,-2.12892 1.81643,-5.64458 v -0.80079 z m 7.16804,-1.48439 v 12.48058 h -3.59378 v -3.32034 q -1.23048,1.99221 -3.06644,2.94925 -1.83595,0.93751 -4.49223,0.93751 -3.3594,0 -5.35161,-1.87502 -1.97267,-1.89455 -1.97267,-5.05864 0,-3.69144 2.46096,-5.56646 2.48049,-1.87502 7.38288,-1.87502 h 5.03911 v -0.35156 q 0,-2.48049 -1.64064,-3.82816 -1.62111,-1.3672 -4.57036,-1.3672 -1.87502,0 -3.65238,0.44922 -1.77736,0.44922 -3.418,1.34767 v -3.32034 q 1.97268,-0.76173 3.82816,-1.13283 1.85549,-0.39062 3.61332,-0.39062 4.74614,0 7.08991,2.46096 2.34377,2.46096 2.34377,7.461 z"
         style="font-style:normal;font-variant:normal;font-weight:normal;font-stretch:normal;font-size:40.00036621px;font-family:sans-serif;-inkscape-font-specification:'sans-serif, Normal';font-variant-ligatures:normal;font-variant-caps:normal;font-variant-numeric:normal;font-feature-settings:normal;text-align:center;writing-mode:lr-tb;text-anchor:middle;stroke-width:1.0461061"
         id="path3048"
         inkscape:connector-curvature="0" />
    </g>
    <g
       id="g3093"
       transform="matrix(0.4767119,0,0,0.48098031,150.10476,115.23549)"
       style="stroke-width:2.08837438">
      <ellipse
         ry="27.78125"
         rx="8.4666662"
         cy="273.12228"
         cx="-48.466938"
         id="path3051"
         style="opacity:0.98999999;vector-effect:none;fill:none;fill-opacity:1;stroke:#4d4d4d;stroke-width:2.76274514;stroke-linecap:round;stroke-linejoin:bevel;stroke-miterlimit:4;stroke-dasharray:none;stroke-dashoffset:0;stroke-opacity:1;paint-order:markers fill stroke" />
      <ellipse
         transform="rotate(45)"
         ry="27.78125"
         rx="8.4666662"
         cy="227.39792"
         cx="158.85532"
         id="path3051-8"
         style="opacity:0.98999999;vector-effect:none;fill:none;fill-opacity:1;stroke:#4d4d4d;stroke-width:2.76274514;stroke-linecap:round;stroke-linejoin:bevel;stroke-miterlimit:4;stroke-dasharray:none;stroke-dashoffset:0;stroke-opacity:1;paint-order:markers fill stroke" />
      <ellipse
         transform="matrix(0.70710678,-0.70710678,-0.70710678,-0.70710678,0,0)"
         ry="27.78125"
         rx="8.4666662"
         cy="-158.85532"
         cx="-227.39792"
         id="path3051-8-6"
         style="opacity:0.98999999;vector-effect:none;fill:none;fill-opacity:1;stroke:#4d4d4d;stroke-width:2.76274514;stroke-linecap:round;stroke-linejoin:bevel;stroke-miterlimit:4;stroke-dasharray:none;stroke-dashoffset:0;stroke-opacity:1;paint-order:markers fill stroke" />
      <circle
         r="4.873014"
         cy="273.12228"
         cx="-48.466938"
         id="path3083"
         style="opacity:0.98999999;vector-effect:none;fill:#ff3a20;fill-opacity:1;stroke:none;stroke-width:2.76274514;stroke-linecap:round;stroke-linejoin:bevel;stroke-miterlimit:4;stroke-dasharray:none;stroke-dashoffset:0;stroke-opacity:1;paint-order:markers fill stroke" />
    </g>
  </g>
</svg>
